<svg width="80" height="40" viewBox="0 0 80 40" fill="none" xmlns="http://www.w3.org/2000/svg">
<g clip-path="url(#clip0_1_75)">
<path d="M8.1841 5.04688L9.98938 9.63163L0.0429688 34.5309H3.98863L6.81052 27.4659H17.0128L19.7954 34.5309H27.8203L16.209 5.04688H8.1841ZM8.16448 24.0766L11.9479 14.6049L15.6777 24.0766H8.16448Z" fill="#AAAAAA"/>
<path d="M38.7593 21.3481H48.1412L49.5178 17.9026H38.7593V8.59663H50.5261L51.9442 5.04688H31.2461V34.5309H50.8325L52.2506 30.9804H38.7593V21.3481Z" fill="#AAAAAA"/>
<mask id="mask0_1_75" style="mask-type:luminance" maskUnits="userSpaceOnUse" x="-3" y="3" width="86" height="34">
<path d="M82.4197 3.95312H-2.86328V36.0321H82.4197V3.95312Z" fill="white"/>
</mask>
<g mask="url(#mask0_1_75)">
<path d="M67.5539 21.3481H72.5056V31.3254C71.9132 31.4866 71.2347 31.5819 70.5162 31.5811C63.8407 31.5811 61.8875 25.4326 61.8875 19.9936C61.8875 14.7751 63.5638 8.59663 70.0166 8.59663H76.8943L78.3117 5.04688H69.2098C60.3713 5.04688 54.1328 11.1166 54.1328 19.9936C54.1328 28.7611 60.1245 34.9404 69.4158 34.9404C74.0445 34.9404 77.0453 34.0636 79.5147 33.2071V17.9026H68.9305L67.5539 21.3481Z" fill="#AAAAAA"/>
</g>
</g>
<defs>
<clipPath id="clip0_1_75">
<rect width="80" height="30" fill="white" transform="translate(0 5)"/>
</clipPath>
</defs>
</svg>
