<svg width="80" height="40" viewBox="0 0 80 40" fill="none" xmlns="http://www.w3.org/2000/svg">
<g clip-path="url(#clip0_1_164)">
<g clip-path="url(#clip1_1_164)">
<path d="M7.22914 11.4103C5.22914 14.4135 3.30321 17.328 1.34766 20.2868C4.04395 19.6655 6.5921 20.5975 9.15506 21.7366C11.0958 22.5947 13.1551 22.6095 15.244 21.426C13.7328 17.0321 10.3254 14.2804 7.22914 11.4103Z" fill="white"/>
<path d="M66.8441 29.7533C66.7848 27.046 66.696 24.3387 66.6811 21.6313C66.6515 18.2731 66.6811 14.9148 66.6811 11.4234H69.3182V19.7377C71.2441 17.3558 73.0219 15.403 74.533 13.2579C75.733 11.5417 77.1552 10.8464 79.4515 11.4826C78.77 12.3258 78.1478 13.1247 77.5108 13.9236C76.2515 15.477 75.0515 17.1191 73.6737 18.5689C72.5182 19.7821 72.696 20.6697 73.7182 21.8828C75.896 24.4422 77.9404 27.1348 80.0293 29.7681C78.8441 29.7681 77.6589 29.7681 76.4737 29.7681C74.1774 26.8093 71.896 23.8505 69.3626 20.581V29.7681H66.8737L66.8441 29.7533Z" fill="#AAAAAA"/>
<path d="M52.6226 29.7525V26.9416C54.9337 26.9416 57.0966 26.8973 59.2744 26.9416C60.9337 26.986 61.6152 26.2611 61.5855 24.6042C61.5411 22.1631 61.2892 21.6897 59.4077 21.601C58.4003 21.5566 57.3929 21.6305 56.3855 21.5566C54.0003 21.379 52.6226 19.8996 52.5781 17.5474C52.5781 16.8964 52.5781 16.2455 52.5781 15.5945C52.6226 12.7097 53.9411 11.3338 56.8003 11.2894C59.2152 11.2451 61.63 11.2894 64.1781 11.2894V13.982C62.0152 13.982 59.8374 13.982 57.6596 13.982C55.467 13.9968 55.1707 14.3074 55.1707 16.423C55.1707 18.7013 55.5263 19.1007 57.63 19.1303C57.867 19.1303 58.104 19.1303 58.3411 19.1303C64.6522 18.8492 64.5781 22.1779 64.104 26.4238C63.8966 28.3175 62.3263 29.0572 60.7855 29.7377H52.6077L52.6226 29.7525Z" fill="#AAAAAA"/>
<path d="M24.5333 29.7538C24.5333 24.7385 24.4148 19.7233 24.5333 14.7081C24.5778 12.7257 25.8963 11.557 28.0741 11.409C30.7704 11.2315 33.4963 11.3646 36.2963 11.3646V13.9832C34.3407 13.9832 32.4148 13.9832 30.4889 13.9832C27.0963 13.9832 26.9778 14.1016 26.9926 17.4746C26.9926 17.948 26.9926 18.4067 26.9926 19.0872H36.163V21.8389H27.0074V29.7685H24.5185L24.5333 29.7538Z" fill="#AAAAAA"/>
<path d="M0 22.653C1.94074 21.5731 4.01481 21.4399 5.98519 22.2832C8.84444 23.4963 11.6741 24.6354 15.0222 23.4815C14.2667 27.1504 11.8519 28.7186 8.88889 29.7542H6.4C3.11111 28.7778 0.992593 26.6326 0 23.3631L0 22.653Z" fill="#AAAAAA"/>
<path d="M42.6668 29.7551C39.1557 28.4976 38.6816 27.8022 38.6816 23.8966C38.6816 19.769 38.6816 15.6415 38.6816 11.4103H41.289C41.289 13.0229 41.289 14.6503 41.289 16.2924C41.289 19.0737 41.3187 21.8402 41.289 24.6215C41.2594 26.2784 42.015 26.9886 43.6446 26.9738C45.7631 26.9442 47.8965 26.9738 50.3113 26.9738C50.252 27.9798 50.2076 28.8822 50.1631 29.7847H42.6965L42.6668 29.7551Z" fill="#AAAAAA"/>
<path d="M7.22914 11.4103C10.3254 14.2804 13.7328 17.0321 15.244 21.426C13.1551 22.6095 11.0958 22.5947 9.15506 21.7366C6.5921 20.6123 4.05877 19.6655 1.34766 20.2868C3.30321 17.328 5.22914 14.4135 7.22914 11.4103Z" fill="#AAAAAA"/>
</g>
</g>
<defs>
<clipPath id="clip0_1_164">
<rect width="80" height="40" fill="white"/>
</clipPath>
<clipPath id="clip1_1_164">
<rect width="80" height="18.5075" fill="white" transform="translate(0 11.2463)"/>
</clipPath>
</defs>
</svg>
