<svg width="80" height="40" viewBox="0 0 80 40" fill="none" xmlns="http://www.w3.org/2000/svg">
<g clip-path="url(#clip0_1_133)">
<path d="M7.57967 13.8272L3.03528 19.8372L3.0438 13.8272H0V29H3.02675L3.0438 24.7993L4.52734 22.8736L8.21059 29H11.8768L6.65885 20.088L11.5272 13.8272H7.57967ZM38.785 22.9721L32.7145 13.8272H30.0458V29H33.0129L33.0044 19.1744L39.578 29H41.8118V13.8361L38.785 13.8272V22.9721ZM53.4584 25.068C52.7848 25.6591 51.8299 25.9547 50.7471 25.9547C48.3513 25.9547 46.7398 23.9573 46.7398 21.2434V21.1986C46.7398 18.6728 48.5729 16.5769 50.7386 16.5769C52.3074 16.5769 53.2879 17.1322 54.3366 18.0817L56.2379 15.6006C54.8225 14.284 53.1344 13.5674 50.6959 13.5674C46.5949 13.5674 43.3721 17.0248 43.3721 21.2434V21.2882C43.3721 25.677 46.3732 28.9283 50.5936 28.9283C53.0747 28.9283 54.797 27.8714 56.4766 26.5727V20.8851H53.4499V25.068H53.4584ZM58.3694 13.8272V29H69.1208V26.1786H61.3961V22.9989H68.3534V20.1776H61.3961V16.6486H68.9076V13.8272H58.3694ZM23.9753 18.5474H27.002V29H23.9753V18.5474ZM27.9314 14.5706C27.9314 15.9947 26.8315 17.1412 25.4844 17.1412C24.1287 17.1412 23.0374 15.9858 23.0374 14.5706C23.0374 13.1465 24.1373 12 25.4844 12C26.84 12 27.9314 13.1465 27.9314 14.5706ZM13.6417 13.8272V29H22.3809V26.1786H16.6684V13.8272H13.6417ZM71.2608 13.8272V29H80V26.1786H74.2875V13.8272H71.2608Z" fill="#AAAAAA"/>
</g>
<defs>
<clipPath id="clip0_1_133">
<rect width="80" height="17" fill="white" transform="translate(0 12)"/>
</clipPath>
</defs>
</svg>
