<svg width="80" height="40" viewBox="0 0 80 40" fill="none" xmlns="http://www.w3.org/2000/svg">
<g clip-path="url(#clip0_1_99)">
<path d="M49.9925 13.2375C49.9925 19.4413 44.9847 24.475 38.7902 24.475C32.5957 24.475 27.5879 19.4514 27.5879 13.2375C27.5879 7.02358 32.6058 2 38.8003 2C44.9947 2 50.0026 7.02358 50.0026 13.2375H49.9925Z" fill="white"/>
<path d="M29.7089 17.879C29.3368 17.879 29.0351 18.1816 29.0351 18.5548C29.0351 18.9281 29.3368 19.2307 29.7089 19.2307C30.0809 19.2307 30.3826 18.9281 30.3826 18.5548C30.3826 18.1816 30.0809 17.879 29.7089 17.879Z" fill="#AAAAAA"/>
<path d="M38.8097 2.06061C32.6253 2.06061 27.6074 7.08419 27.6074 13.2981C27.6074 14.67 27.8588 15.9915 28.3214 17.2221C29.3068 16.3244 29.88 17.0103 30.8253 16.173C31.9415 15.1945 33.8019 13.2477 34.908 11.7144C34.6968 11.4622 34.4555 11.2201 34.2041 10.9578C33.4398 10.1911 33.4097 8.89994 34.2041 8.09294C34.9985 7.29603 36.2756 7.32629 37.06 8.09294C38.3974 9.43458 39.4533 10.1508 41.9271 10.292C44.2902 10.4332 45.3863 11.4117 46.0299 12.0674L46.3114 12.3499C46.4321 12.4709 46.4221 12.6323 46.3114 12.7534C46.1908 12.8744 43.0935 15.9814 43.0935 15.9814L41.6656 14.5489C41.6656 14.5489 42.7215 13.4898 42.8019 13.399C42.9226 13.2779 42.8924 13.0863 42.7114 13.0257C42.5405 12.9753 37.9248 11.4622 37.8041 11.4218C37.6734 11.3815 37.6131 11.3916 37.5427 11.4521C37.4924 11.5126 37.4622 11.5832 37.5125 11.7144C37.5527 11.8354 39.0611 16.4555 39.1114 16.6371C39.1617 16.8085 39.3728 16.8388 39.4835 16.7278C39.6041 16.6068 40.6298 15.5779 40.6298 15.5779L42.0578 17.0103C42.0578 17.0103 38.9505 20.1273 38.8399 20.2383C38.7192 20.3594 38.5583 20.3594 38.4376 20.2383C38.317 20.1173 38.1561 19.9559 38.1561 19.9559C37.4924 19.2901 36.527 18.2107 36.3862 15.8401C36.346 15.0533 36.2354 14.4077 36.0846 13.8529C33.9829 15.7494 31.7102 18.0897 31.4286 19.0177C31.137 19.9962 31.127 21.5295 32.5348 22.5786C34.3248 23.7992 36.4868 24.5255 38.8198 24.5255C44.9941 24.5255 50.0221 19.5019 50.0221 13.288C50.0221 7.0741 44.9841 2.06061 38.8097 2.06061Z" fill="#AAAAAA"/>
<path d="M11.4609 33.6851V26.1699H12.6375V33.6851H11.4609Z" fill="#AAAAAA"/>
<path d="M17.5945 33.6839V32.9374C17.1722 33.4821 16.5587 33.815 15.8548 33.815C14.4772 33.815 13.4414 32.7558 13.4414 30.9501C13.4414 29.1546 14.4571 28.1055 15.8548 28.1055C16.5386 28.1055 17.1621 28.4081 17.5945 28.9932V28.2366H18.7711V33.6839H17.5945ZM17.5945 32.0295V29.8809C17.3331 29.4774 16.7498 29.1445 16.1967 29.1445C15.2615 29.1445 14.6481 29.901 14.6481 30.9501C14.6481 31.9992 15.2414 32.7659 16.1967 32.7659C16.7498 32.7659 17.3331 32.4431 17.5945 32.0295Z" fill="#AAAAAA"/>
<path d="M26.6358 33.6839V30.1331C26.6358 29.548 26.3744 29.1445 25.7409 29.1445C25.2079 29.1445 24.7152 29.4975 24.4738 29.8708V33.6839H23.2973V30.1331C23.2973 29.548 23.0459 29.1445 22.4123 29.1445C21.8794 29.1445 21.3967 29.5177 21.1453 29.8708V33.6839H19.9688V28.2366H21.1453V28.973C21.3866 28.6502 22.0805 28.1055 22.9151 28.1055C23.7498 28.1055 24.2224 28.509 24.3934 29.1041C24.695 28.6199 25.4191 28.1055 26.2437 28.1055C27.2392 28.1055 27.8124 28.6502 27.8124 29.7497V33.6839H26.6358Z" fill="#AAAAAA"/>
<path d="M30.1844 32.9175V35.742H29.0078V28.2268H30.1844V28.9733C30.5866 28.4286 31.2201 28.0957 31.924 28.0957C33.3319 28.0957 34.3375 29.1549 34.3375 30.9404C34.3375 32.7259 33.3319 33.8052 31.924 33.8052C31.2402 33.8052 30.6268 33.4925 30.1844 32.9175ZM33.1207 30.9505C33.1207 29.8913 32.5173 29.1448 31.5721 29.1448C31.019 29.1448 30.4458 29.4575 30.1743 29.8711V32.0298C30.4358 32.4333 31.019 32.7763 31.5721 32.7763C32.5073 32.7662 33.1207 32.0097 33.1207 30.9505Z" fill="#AAAAAA"/>
<path d="M35.1328 30.9501C35.1328 29.3664 36.2792 28.1055 37.8881 28.1055C39.4971 28.1055 40.553 29.3361 40.553 31.0611V31.3536H36.3697C36.4602 32.1707 37.0736 32.8466 38.0893 32.8466C38.6323 32.8466 39.2457 32.6348 39.6479 32.2413L40.191 33.0181C39.6379 33.5426 38.8435 33.815 37.9887 33.815C36.3496 33.815 35.1529 32.6751 35.1529 30.9501H35.1328ZM37.8781 29.0638C36.8725 29.0638 36.4099 29.8405 36.3697 30.4962H39.4267C39.3865 29.8506 38.944 29.0638 37.8781 29.0638Z" fill="#AAAAAA"/>
<path d="M44.9985 33.6855V30.286C44.9985 29.4286 44.5561 29.1562 43.8924 29.1562C43.2991 29.1562 42.7762 29.5093 42.4946 29.8825V33.6956H41.3281V28.2483H42.5047V28.9847C42.8566 28.551 43.5706 28.1172 44.4254 28.1172C45.5918 28.1172 46.1751 28.7426 46.1751 29.8623V33.6956H44.9985V33.6855Z" fill="#AAAAAA"/>
<path d="M52.1674 33.6855L50.8903 29.701L49.6233 33.6855H48.3964L46.707 28.2383H47.9238L49.0702 32.1926L50.3674 28.2383H51.4132L52.7004 32.1926L53.8468 28.2383H55.0736L53.3842 33.6855C53.3942 33.6855 52.1674 33.6855 52.1674 33.6855Z" fill="#AAAAAA"/>
<path d="M55.1953 30.9501C55.1953 29.3664 56.3417 28.1055 57.9506 28.1055C59.5596 28.1055 60.6155 29.3361 60.6155 31.0611V31.3536H56.4322C56.5227 32.1707 57.1361 32.8466 58.1518 32.8466C58.6948 32.8466 59.3082 32.6348 59.7104 32.2413L60.2535 33.0181C59.7004 33.5426 58.906 33.815 58.0512 33.815C56.4121 33.815 55.2154 32.6751 55.2154 30.9501H55.1953ZM57.9305 29.0638C56.9249 29.0638 56.4624 29.8405 56.4221 30.4962H59.4791C59.449 29.8506 59.0065 29.0638 57.9305 29.0638Z" fill="#AAAAAA"/>
<path d="M61.3984 33.6851V26.1699H62.575V33.6851H61.3984Z" fill="#AAAAAA"/>
<path d="M64.2758 32.4029V29.2657H63.3809V28.2368H64.2758V26.7539H65.4524V28.2368H66.5585V29.2657H65.4524V32.1104C65.4524 32.4836 65.6334 32.756 65.9753 32.756C66.2066 32.756 66.4077 32.6551 66.4982 32.5542L66.7798 33.452C66.5686 33.6437 66.2166 33.795 65.6736 33.795C64.7585 33.795 64.2758 33.3007 64.2758 32.3827V32.4029Z" fill="#AAAAAA"/>
<path d="M41.3164 39.2735V35.9043H41.8494V36.2372C42.0304 35.9951 42.3119 35.8438 42.6237 35.8438C43.2471 35.8438 43.6997 36.3179 43.6997 37.1249C43.6997 37.9218 43.2471 38.4161 42.6237 38.4161C42.322 38.4161 42.0404 38.2748 41.8494 38.0126V39.2836H41.3164V39.2735ZM42.4628 36.2977C42.2114 36.2977 41.96 36.449 41.8393 36.6205V37.5889C41.96 37.7604 42.2214 37.9117 42.4628 37.9117C42.8851 37.9117 43.1566 37.5788 43.1566 37.0946C43.1566 36.6205 42.8851 36.2775 42.4628 36.2775V36.2977Z" fill="#AAAAAA"/>
<path d="M44.1328 35.9043H44.6658V36.2573C44.8468 36.0253 45.1384 35.8438 45.4501 35.8438V36.3784C45.4501 36.3784 45.3496 36.3683 45.2892 36.3683C45.058 36.3683 44.7663 36.5196 44.6658 36.6911V38.3555H44.1328V35.9043Z" fill="#AAAAAA"/>
<path d="M45.5098 37.1249C45.5098 36.4288 45.9824 35.8438 46.7668 35.8438C47.5511 35.8438 48.0238 36.4288 48.0238 37.1249C48.0238 37.8209 47.5511 38.4161 46.7668 38.4161C45.9824 38.4161 45.5098 37.831 45.5098 37.1249ZM47.4707 37.1249C47.4707 36.6911 47.2193 36.3078 46.7668 36.3078C46.3142 36.3078 46.0628 36.6911 46.0628 37.1249C46.0628 37.5586 46.3142 37.942 46.7668 37.942C47.2193 37.942 47.4707 37.5586 47.4707 37.1249Z" fill="#AAAAAA"/>
<path d="M48.5663 36.3667H48.1641V35.9026H48.5663V35.7614C48.5663 35.2167 48.8881 34.9141 49.3306 34.9141C49.4914 34.9141 49.6423 34.9443 49.7529 35.0149L49.6322 35.4083C49.5719 35.3781 49.4914 35.3579 49.4211 35.3579C49.2199 35.3579 49.0892 35.4991 49.0892 35.7715V35.9127H49.582V36.3768H49.0892V38.364H48.5562V36.3768L48.5663 36.3667Z" fill="#AAAAAA"/>
<path d="M50.9696 35.8324C51.7037 35.8324 52.1662 36.3973 52.1662 37.1639V37.295H50.2858C50.326 37.6683 50.5975 37.9709 51.0601 37.9709C51.3014 37.9709 51.583 37.87 51.754 37.6985L51.9953 38.0415C51.754 38.2735 51.3919 38.3946 50.9998 38.3946C50.2657 38.3946 49.7227 37.8902 49.7227 37.1034C49.7227 36.3973 50.2456 35.8223 50.9495 35.8223H50.9696V35.8324ZM50.2757 36.9218H51.6433C51.6433 36.6293 51.4422 36.2762 50.9495 36.2762C50.497 36.2762 50.2858 36.6192 50.2556 36.9218H50.2757Z" fill="#AAAAAA"/>
<path d="M52.6085 37.6494C52.7795 37.8209 53.1113 37.9924 53.4432 37.9924C53.775 37.9924 53.9158 37.8713 53.9158 37.6898C53.9158 37.4779 53.6544 37.3972 53.3627 37.3367C52.9404 37.2459 52.4476 37.135 52.4476 36.5902C52.4476 36.1867 52.7895 35.8438 53.413 35.8438C53.8253 35.8438 54.137 35.9951 54.3683 36.1867L54.137 36.57C53.9862 36.4086 53.7147 36.2775 53.413 36.2775C53.1314 36.2775 52.9605 36.3784 52.9605 36.5499C52.9605 36.7315 53.2018 36.8021 53.4935 36.8626C53.9158 36.9534 54.4287 37.0744 54.4287 37.6494C54.4287 38.0832 54.0767 38.406 53.413 38.406C53.0007 38.406 52.6286 38.2748 52.3672 38.0227L52.6085 37.6393V37.6494Z" fill="#AAAAAA"/>
<path d="M54.882 37.6494C55.0529 37.8209 55.3848 37.9924 55.7166 37.9924C56.0384 37.9924 56.1892 37.8713 56.1892 37.6898C56.1892 37.4779 55.9278 37.3972 55.6362 37.3367C55.2138 37.2459 54.7211 37.135 54.7211 36.5902C54.7211 36.1867 55.063 35.8438 55.6864 35.8438C56.0987 35.8438 56.4105 35.9951 56.6418 36.1867L56.4105 36.57C56.2596 36.4086 55.9881 36.2775 55.6864 36.2775C55.4049 36.2775 55.2339 36.3784 55.2339 36.5499C55.2339 36.7315 55.4753 36.8021 55.7669 36.8626C56.1892 36.9534 56.7021 37.0744 56.7021 37.6494C56.7021 38.0832 56.3501 38.406 55.6864 38.406C55.2741 38.406 54.9021 38.2748 54.6406 38.0227L54.882 37.6393V37.6494Z" fill="#AAAAAA"/>
<path d="M57.0547 35.1665C57.0547 34.985 57.2055 34.8438 57.3765 34.8438C57.5474 34.8438 57.6983 34.9951 57.6983 35.1665C57.6983 35.338 57.5474 35.4894 57.3765 35.4894C57.2055 35.4894 57.0547 35.338 57.0547 35.1665ZM57.1251 35.9029H57.658V38.3542H57.1251V35.9029Z" fill="#AAAAAA"/>
<path d="M57.9785 37.1249C57.9785 36.4288 58.4511 35.8438 59.2355 35.8438C60.0199 35.8438 60.4925 36.4288 60.4925 37.1249C60.4925 37.8209 60.0199 38.4161 59.2355 38.4161C58.4511 38.4161 57.9785 37.831 57.9785 37.1249ZM59.9294 37.1249C59.9294 36.6911 59.678 36.3078 59.2255 36.3078C58.7729 36.3078 58.5215 36.6911 58.5215 37.1249C58.5215 37.5586 58.7729 37.942 59.2255 37.942C59.678 37.942 59.9294 37.5586 59.9294 37.1249Z" fill="#AAAAAA"/>
<path d="M62.5454 36.8108C62.5454 36.4275 62.3543 36.3065 62.0627 36.3065C61.7912 36.3065 61.5599 36.4679 61.4392 36.6293V38.3341H60.9062V35.8828H61.4392V36.2157C61.6001 36.024 61.9118 35.8223 62.294 35.8223C62.8269 35.8223 63.0783 36.1047 63.0783 36.599V38.324H62.5454V36.8008V36.8108Z" fill="#AAAAAA"/>
<path d="M66.2344 34.9648H66.7673V38.3341H66.2344V34.9648Z" fill="#AAAAAA"/>
<path d="M65.249 38.3455V38.0126C65.068 38.2547 64.7864 38.4161 64.4647 38.4161C63.8412 38.4161 63.3887 37.942 63.3887 37.1249C63.3887 36.3078 63.8412 35.8438 64.4647 35.8438C64.7764 35.8438 65.0479 35.985 65.249 36.2473V35.9144H65.782V38.3656H65.249V38.3455ZM65.249 37.6091V36.6407C65.1283 36.4591 64.8669 36.3179 64.6256 36.3179C64.2032 36.3179 63.9317 36.6507 63.9317 37.135C63.9317 37.6192 64.2032 37.952 64.6256 37.952C64.877 37.952 65.1283 37.8007 65.249 37.6292V37.6091Z" fill="#AAAAAA"/>
</g>
<defs>
<clipPath id="clip0_1_99">
<rect width="73" height="37" fill="white" transform="translate(3 2)"/>
</clipPath>
</defs>
</svg>
