<svg width="80" height="40" viewBox="0 0 80 40" fill="none" xmlns="http://www.w3.org/2000/svg">
<g clip-path="url(#clip0_1_198)">
<path fill-rule="evenodd" clip-rule="evenodd" d="M54.211 20.5001C58.4463 18.6951 58.3522 11.1901 51.7639 11.1901H28.0463L27.858 14.0401L31.9051 15.9401L31.4345 24.2051L27.1992 26.7701L27.011 29.8101H50.8227C58.1639 29.8101 58.9169 22.1151 54.3051 20.3101L54.211 20.5001ZM44.4227 24.7751H41.6933L41.8816 22.1151H44.7051C46.5875 22.1151 46.3992 24.7751 44.4227 24.7751ZM44.7992 18.1251H42.0698L42.258 15.6551H44.8933C46.6816 15.6551 46.6816 18.1251 44.8933 18.1251H44.7992ZM18.8227 11.0001H8.4698C6.38431 10.9197 4.34867 11.6556 2.78786 13.054C1.22704 14.4525 0.261688 16.4054 0.0933341 18.5051L-0.000783555 21.2601C-0.377254 24.4901 2.35216 30.0001 7.52863 30.0001H17.8816C22.8698 30.0001 26.0698 26.9601 26.5404 21.7351L26.7286 18.8851C27.011 16.1301 25.411 11.0001 18.8227 11.0001ZM15.058 23.2551C15.058 24.2051 14.3992 25.1551 13.3639 25.1551H12.4227C11.4816 25.1551 11.1051 24.4901 11.1992 23.2551L11.5757 17.0801C11.5757 16.1301 12.3286 15.1801 13.0816 15.1801H14.0227C14.9639 15.1801 15.5286 15.8451 15.5286 16.9851L15.058 23.2551Z" fill="#AAAAAA"/>
<path d="M59.4802 11.5696L59.3861 14.3246L63.9979 16.6996L63.5273 24.0146L58.6332 26.6746L58.5391 29.5246H78.8685L79.0567 26.6746L74.7273 23.8246L75.0096 16.6046L79.7155 14.3246L79.9038 11.4746L59.4802 11.5696Z" fill="#AAAAAA"/>
<path d="M78.4932 23.7295L78.2108 22.8745H77.9285V23.7295H77.7402V22.0195H78.1167C78.3991 22.0195 78.6814 22.0195 78.6814 22.3995C78.6814 22.6845 78.5873 22.7795 78.3991 22.8745L78.7755 23.7295H78.4932ZM78.4932 22.3995C78.4932 22.1145 78.3049 22.1145 78.1167 22.1145H77.9285V22.7795H78.1167C78.3049 22.7795 78.4932 22.7795 78.4932 22.4945V22.3995Z" fill="#AAAAAA"/>
<path fill-rule="evenodd" clip-rule="evenodd" d="M79.5347 22.8142C79.5349 23.1804 79.3926 23.5325 79.1376 23.7964C78.8825 24.0604 78.5346 24.2157 78.1669 24.2298C77.9606 24.2707 77.7478 24.2655 77.5437 24.2146C77.3397 24.1638 77.1495 24.0685 76.9869 23.9357C76.8243 23.803 76.6933 23.6359 76.6034 23.4467C76.5134 23.2575 76.4668 23.0507 76.4668 22.8414C76.4668 22.6321 76.5134 22.4254 76.6034 22.2361C76.6933 22.0469 76.8243 21.8799 76.9869 21.7471C77.1495 21.6143 77.3397 21.519 77.5437 21.4682C77.7478 21.4173 77.9606 21.4121 78.1669 21.453C78.5253 21.4665 78.8654 21.6142 79.119 21.8666C79.3727 22.119 79.5211 22.4575 79.5347 22.8142Z" stroke="#AAAAAA" stroke-width="0.40404"/>
<path d="M79.0573 12.4258V13.7558L74.2573 16.1308L73.7867 24.3958L78.2102 27.2458V28.7658H59.3867L59.4808 27.2458L64.4691 24.5858L64.9397 16.2258L60.2338 13.7558V12.4258H79.0573Z" fill="#AAAAAA"/>
<path fill-rule="evenodd" clip-rule="evenodd" d="M53.1746 20.8808L51.951 20.5008L53.0805 20.1208C57.7863 18.5058 57.2216 12.1408 51.6687 12.1408H28.8922L28.7981 13.5658L32.8452 15.4658L32.2805 24.7758L28.0452 27.4358L27.951 28.9558H50.6334C57.0334 28.9558 58.1628 22.2108 53.1746 20.8808ZM44.4216 25.6308H40.8452L41.1275 21.2608H44.6099C47.6216 21.2608 47.4334 25.6308 44.4216 25.6308ZM44.8922 18.9808H41.2216L41.4099 14.8008H44.8922C47.904 14.8008 47.6216 18.8858 44.8922 18.8858V18.9808ZM18.8216 11.7608H8.46869C7.55377 11.7095 6.63781 11.841 5.77332 12.1477C4.90883 12.4544 4.11278 12.9302 3.43081 13.548C2.74884 14.1657 2.19434 14.9133 1.7991 15.7477C1.40386 16.5822 1.17563 17.4872 1.12751 18.4108L0.939276 21.4508C0.656924 24.6808 3.1981 29.0508 7.52751 29.0508H17.8805C24.0922 29.0508 25.4099 24.3008 25.5981 21.4508L25.7863 18.7908C26.0687 16.2258 24.8452 11.7608 18.8216 11.7608ZM16.2805 16.9858L15.904 23.1608C15.904 24.7758 14.7746 25.9158 13.3628 25.9158H12.4216C10.9157 25.9158 10.2569 24.6808 10.351 23.1608L10.7275 16.8908C10.7275 15.5608 11.8569 14.3258 13.0805 14.3258H14.0216C15.2452 14.3258 16.3746 15.2758 16.2805 16.9858Z" fill="#AAAAAA"/>
</g>
<defs>
<clipPath id="clip0_1_198">
<rect width="80" height="19" fill="white" transform="translate(0 11)"/>
</clipPath>
</defs>
</svg>
