<svg width="80" height="40" viewBox="0 0 80 40" fill="none" xmlns="http://www.w3.org/2000/svg">
<g clip-path="url(#clip0_1_186)">
<path d="M5.28501 21.3756C5.84888 22.1301 6.39512 22.8611 7.01846 23.694C6.41605 23.694 5.92817 23.7134 5.4447 23.6818C5.31584 23.6736 5.16827 23.5309 5.08016 23.4157C4.75308 22.9865 4.41608 22.5593 4.14516 22.0995C3.91829 21.7141 3.62093 21.5765 3.1672 21.6214C2.87975 21.6499 2.58681 21.6264 2.22558 21.6264V23.6114C2.11104 23.6563 2.06369 23.6889 2.01413 23.692C1.23734 23.7436 0.848945 23.4099 0.848945 22.6908C0.848945 22.4533 0.888592 22.2066 0.832426 21.9812C0.799387 21.8477 0.605557 21.6417 0.496527 21.6479C0.031776 21.6723 -0.0177829 21.4409 0.00424325 21.1106C0.0185602 20.8965 0.00644587 20.6803 0.00644587 20.4775C0.567378 20.3782 0.847844 20.0809 0.847844 19.5854C0.847844 18.8727 0.856655 18.1591 0.84454 17.4464C0.839034 17.1192 0.976697 17.0019 1.33572 17.008C2.34342 17.0254 3.35221 17.0121 4.36101 17.0142C5.57245 17.0172 6.5405 17.6534 6.81252 18.6219C7.12419 19.7312 6.68587 20.6436 5.56033 21.2299C5.48434 21.2696 5.40835 21.3094 5.28501 21.3746V21.3756ZM3.47336 20.402C3.76631 20.402 4.06035 20.4173 4.3533 20.399C5.04052 20.3561 5.535 19.8688 5.51298 19.2754C5.49205 18.6984 4.99757 18.261 4.32136 18.2366C3.97335 18.2243 3.62534 18.2345 3.27733 18.2345C2.56515 18.2345 2.20906 18.5676 2.20906 19.2336C2.20906 20.0153 2.63123 20.4047 3.47556 20.402H3.47336Z" fill="#AAAAAA"/>
<path d="M54.1183 22.7223C54.4421 22.445 54.7703 22.1647 54.9938 21.972C55.6821 22.2595 56.2493 22.6112 56.8638 22.7152C57.3616 22.7998 57.9442 22.65 58.4354 22.4766C58.6612 22.3971 58.8715 22.0097 58.8759 21.7599C58.8792 21.5795 58.561 21.2971 58.3297 21.2308C57.7394 21.0636 57.1171 20.9963 56.5092 20.8801C56.1876 20.8189 55.8595 20.7659 55.5511 20.6639C54.1921 20.2154 53.8694 18.6596 54.9355 17.7461C56.1249 16.7276 58.8231 16.7673 59.9651 17.8378C60.0422 17.9102 60.0411 18.1396 59.975 18.2395C59.8759 18.3925 59.67 18.4812 59.5422 18.6229C59.3098 18.8808 59.1149 18.8461 58.8517 18.6463C58.17 18.1284 57.3892 17.9632 56.5335 18.2008C56.1006 18.3211 55.7383 18.5688 55.768 19.0154C55.7956 19.4324 56.1987 19.569 56.594 19.6363C57.2779 19.7525 57.9641 19.8514 58.6469 19.9717C59.5169 20.1246 60.2118 20.4784 60.3561 21.3827C60.5092 22.341 60.0995 23.0629 59.1347 23.5706C57.5929 24.3821 55.2471 24.0069 54.1172 22.7213L54.1183 22.7223Z" fill="#AAAAAA"/>
<path d="M36.9346 18.1557C36.4368 18.1557 36.0789 18.1445 35.722 18.1588C35.2716 18.1761 35.2815 17.8988 35.2925 17.6154C35.3024 17.3381 35.2066 17.0067 35.7132 17.0129C36.4643 17.022 37.2165 16.9914 37.9665 17.0292C38.1537 17.0383 38.4235 17.2025 38.4962 17.3595C39.4533 19.4087 40.3817 21.4702 41.3156 23.5286C41.3277 23.5551 41.3079 23.5928 41.2936 23.6978C40.9081 23.6978 40.5028 23.7437 40.1196 23.6764C39.9511 23.6468 39.7495 23.4042 39.7011 23.2268C39.5348 22.6131 39.1691 22.3888 38.4841 22.4652C37.9247 22.5274 37.3465 22.4479 36.7837 22.4938C36.5811 22.5101 36.3068 22.6661 36.2154 22.8302C35.6769 23.7967 35.6284 23.8334 34.3652 23.6367C35.2044 21.8494 36.0359 20.0775 36.9368 18.1568L36.9346 18.1557ZM37.9522 19.266C37.8894 19.2721 37.8255 19.2782 37.7628 19.2843C37.4863 19.9134 37.2099 20.5424 36.9015 21.2459H38.8376C38.5216 20.5404 38.2374 19.9032 37.9522 19.266Z" fill="#AAAAAA"/>
<path d="M30.9229 19.3436C30.9229 20.0389 31.0099 20.7454 30.9052 21.4275C30.6596 23.024 29.2852 23.9518 27.4295 23.8641C25.8315 23.7887 24.5705 22.6121 24.51 21.0645C24.4626 19.8605 24.51 18.6534 24.4945 17.4483C24.4868 16.8641 24.9362 17.0446 25.2654 17.013C25.6388 16.9773 25.9042 17.0303 25.8932 17.4829C25.869 18.5014 25.8734 19.521 25.8866 20.5395C25.8965 21.3194 26.0969 22.0412 26.9075 22.4439C28.1355 23.0536 29.5066 22.2522 29.555 20.8861C29.5925 19.8176 29.5561 18.7471 29.5705 17.6767C29.5738 17.4707 29.62 17.1067 29.7125 17.0874C30.0572 17.014 30.4339 17.0293 30.7896 17.0731C30.8623 17.0823 30.9383 17.3565 30.9427 17.5105C30.9603 18.1212 30.9504 18.7329 30.9504 19.3446C30.9405 19.3446 30.9317 19.3446 30.9218 19.3446L30.9229 19.3436Z" fill="#AAAAAA"/>
<path d="M50.4043 20.9486V23.6595C50.2457 23.6727 50.0882 23.6972 49.9307 23.6972C48.4439 23.7003 46.9572 23.6891 45.4715 23.7054C45.0662 23.7094 44.8856 23.634 44.8911 23.2048C44.9153 21.3197 44.9242 19.4326 44.8889 17.5475C44.8779 16.945 45.2479 17.0255 45.662 17.0031C46.1026 16.9796 46.2788 17.0846 46.271 17.5291C46.2446 19.0237 46.2766 20.5194 46.2501 22.014C46.2424 22.43 46.3933 22.5441 46.8173 22.5248C47.4032 22.4972 47.9924 22.5054 48.5783 22.5217C48.9516 22.5319 49.1367 22.4136 49.0871 22.0517C49.0783 21.9844 49.086 21.9161 49.086 21.8478C49.0871 20.7712 49.1378 20.7355 50.4043 20.9486Z" fill="#AAAAAA"/>
<path d="M18.8348 20.9993C18.8348 21.7466 18.815 22.4949 18.8425 23.2422C18.8557 23.6113 18.7037 23.7367 18.3315 23.702C18.2048 23.6898 18.0738 23.6898 17.946 23.702C17.565 23.7377 17.4372 23.5929 17.4416 23.235C17.4604 21.7741 17.4295 20.3121 17.4604 18.8521C17.4703 18.3628 17.3128 18.1609 16.7764 18.2282C16.5419 18.2578 16.2952 18.2068 16.0617 18.2384C15.4747 18.3189 15.3569 18.0702 15.3679 17.5747C15.3778 17.1241 15.5287 16.9956 16.0077 17.0038C17.457 17.0303 18.9086 17.0394 20.3568 17.0007C20.9229 16.9854 20.9647 17.2189 20.9834 17.6359C21.0033 18.1008 20.8568 18.2945 20.337 18.2404C20.011 18.2058 19.6762 18.2506 19.3469 18.2292C18.9581 18.2048 18.8249 18.3638 18.8304 18.7074C18.8436 19.472 18.8348 20.2367 18.8337 21.0013L18.8348 20.9993Z" fill="#AAAAAA"/>
<path d="M11.7861 20.4331C11.7861 21.3833 11.7619 22.3345 11.7949 23.2837C11.8114 23.767 11.5086 23.7649 11.1616 23.7354C10.8401 23.7078 10.3885 23.9026 10.394 23.3061C10.4106 21.3721 10.4161 19.4371 10.3907 17.502C10.383 16.9046 10.796 17.0371 11.1638 17.0096C11.5879 16.977 11.8103 17.0759 11.796 17.5316C11.7674 18.4981 11.7872 19.4656 11.7861 20.4331Z" fill="#AAAAAA"/>
<path d="M78.9028 21.6666C79.5779 21.685 80.0151 22.1152 79.9997 22.7453C79.9843 23.3835 79.4821 23.828 78.8059 23.8015C78.1176 23.774 77.6925 23.3274 77.72 22.6586C77.7453 22.0367 78.209 21.6483 78.9017 21.6666H78.9028Z" fill="#AAAAAA"/>
<path d="M73.5264 22.7113C73.5385 23.3036 72.99 23.8012 72.3249 23.8012C71.685 23.8012 71.1652 23.3322 71.1564 22.747C71.1476 22.1648 71.6564 21.6795 72.2896 21.6663C72.9504 21.653 73.5132 22.1291 73.5253 22.7123L73.5264 22.7113Z" fill="#AAAAAA"/>
<path d="M65.842 21.666C66.5006 21.6691 66.9675 22.1095 66.9642 22.7253C66.9609 23.3707 66.4785 23.8131 65.7902 23.8009C65.1052 23.7887 64.6372 23.3258 64.6548 22.6784C64.6713 22.0769 65.157 21.663 65.8409 21.666H65.842Z" fill="#AAAAAA"/>
</g>
<defs>
<clipPath id="clip0_1_186">
<rect width="80" height="7" fill="white" transform="translate(0 17)"/>
</clipPath>
</defs>
</svg>
