<svg width="80" height="40" viewBox="0 0 80 40" fill="none" xmlns="http://www.w3.org/2000/svg">
<g clip-path="url(#clip0_1_85)">
<g clip-path="url(#clip1_1_85)">
<path d="M23.2226 31.2558C29.1629 31.2558 33.9784 26.4402 33.9784 20.5C33.9784 14.5597 29.1629 9.74414 23.2226 9.74414C17.2823 9.74414 12.4668 14.5597 12.4668 20.5C12.4668 26.4402 17.2823 31.2558 23.2226 31.2558Z" fill="#AAAAAA"/>
<path d="M37.1459 26.1802C37.0668 26.1802 36.9909 26.1488 36.935 26.0928C36.879 26.0369 36.8476 25.961 36.8476 25.8819V24.6872C36.8476 24.608 36.8791 24.532 36.9351 24.4761C36.991 24.4201 37.067 24.3886 37.1462 24.3886C37.2253 24.3886 37.3013 24.4201 37.3573 24.4761C37.4133 24.532 37.4447 24.608 37.4447 24.6872V25.8813C37.4448 25.9206 37.4371 25.9595 37.4221 25.9958C37.4071 26.0321 37.3851 26.0651 37.3573 26.0928C37.3296 26.1206 37.2966 26.1426 37.2603 26.1576C37.224 26.1726 37.1851 26.1803 37.1459 26.1802Z" fill="#AAAAAA"/>
<path d="M21.224 26.1802C21.1449 26.1802 21.0691 26.1488 21.0131 26.0929C20.9572 26.0369 20.9258 25.9611 20.9258 25.882V24.6872C20.9258 24.608 20.9572 24.5321 21.0132 24.4761C21.0692 24.4201 21.1451 24.3887 21.2243 24.3887C21.3035 24.3887 21.3794 24.4201 21.4354 24.4761C21.4914 24.5321 21.5229 24.608 21.5229 24.6872V25.8814C21.523 25.9207 21.5153 25.9596 21.5003 25.9959C21.4853 26.0321 21.4633 26.0651 21.4355 26.0929C21.4078 26.1207 21.3748 26.1427 21.3385 26.1576C21.3022 26.1726 21.2633 26.1803 21.224 26.1802Z" fill="white"/>
<path d="M21.0235 21.7012V16.5483C21.0207 16.3871 21.0821 16.2314 21.194 16.1154C21.306 15.9994 21.4594 15.9326 21.6206 15.9297H36.7468C36.908 15.9326 37.0614 15.9994 37.1734 16.1154C37.2854 16.2314 37.3467 16.3871 37.3439 16.5483V21.7012H21.0235Z" fill="#F2F2F2"/>
<path d="M37.3454 21.9002H21.0251C20.9723 21.9002 20.9218 21.8793 20.8845 21.842C20.8472 21.8047 20.8262 21.7541 20.8262 21.7014V16.5479C20.8236 16.334 20.9059 16.1278 21.0551 15.9746C21.2044 15.8213 21.4083 15.7335 21.6222 15.7305H36.7483C36.9622 15.7335 37.1661 15.8213 37.3154 15.9746C37.4646 16.1278 37.5469 16.334 37.5443 16.5479V21.7014C37.5443 21.7541 37.5233 21.8047 37.486 21.842C37.4487 21.8793 37.3982 21.9002 37.3454 21.9002ZM21.2245 21.502H37.1466V16.5479C37.1492 16.4395 37.1088 16.3344 37.0342 16.2558C36.9595 16.1771 36.8567 16.1312 36.7483 16.1281H21.6222C21.5138 16.1312 21.411 16.1771 21.3363 16.2558C21.2617 16.3344 21.2212 16.4395 21.2239 16.5479L21.2245 21.502Z" fill="#AAAAAA"/>
<path d="M20.031 24.4884C19.8726 24.4884 19.7207 24.4255 19.6088 24.3136C19.4968 24.2016 19.4339 24.0497 19.4339 23.8914V20.5076C19.4298 20.296 19.468 20.0857 19.5462 19.889C19.6244 19.6922 19.7411 19.5131 19.8893 19.362C20.0375 19.2109 20.2144 19.0909 20.4096 19.0089C20.6048 18.927 20.8144 18.8848 21.026 18.8848C21.2377 18.8848 21.4473 18.927 21.6425 19.0089C21.8376 19.0909 22.0145 19.2109 22.1628 19.362C22.311 19.5131 22.4276 19.6922 22.5058 19.889C22.584 20.0857 22.6222 20.296 22.6182 20.5076V21.7018H35.7542V20.5082C35.7502 20.2966 35.7884 20.0862 35.8666 19.8895C35.9448 19.6928 36.0614 19.5137 36.2097 19.3626C36.3579 19.2115 36.5348 19.0914 36.73 19.0095C36.9251 18.9276 37.1347 18.8853 37.3464 18.8853C37.5581 18.8853 37.7676 18.9276 37.9628 19.0095C38.158 19.0914 38.3349 19.2115 38.4831 19.3626C38.6314 19.5137 38.748 19.6928 38.8262 19.8895C38.9044 20.0862 38.9426 20.2966 38.9385 20.5082V23.8919C38.9385 24.0503 38.8756 24.2022 38.7637 24.3141C38.6517 24.4261 38.4998 24.489 38.3414 24.489L20.031 24.4884Z" fill="white"/>
<path d="M37.346 19.116C37.5292 19.116 37.7107 19.1521 37.88 19.2222C38.0493 19.2923 38.2031 19.3951 38.3327 19.5247C38.4622 19.6543 38.565 19.8081 38.6351 19.9774C38.7053 20.1467 38.7414 20.3281 38.7414 20.5114V23.8922C38.7414 23.9445 38.7311 23.9963 38.711 24.0446C38.691 24.0929 38.6617 24.1368 38.6247 24.1738C38.5877 24.2108 38.5438 24.2401 38.4955 24.2601C38.4472 24.2801 38.3954 24.2904 38.3431 24.2904H20.0303C19.978 24.2904 19.9262 24.2801 19.8779 24.2601C19.8296 24.2401 19.7857 24.2108 19.7487 24.1738C19.7117 24.1368 19.6824 24.0929 19.6624 24.0446C19.6423 23.9963 19.632 23.9445 19.632 23.8922V20.5084C19.6513 20.1519 19.8065 19.8164 20.0657 19.5708C20.3249 19.3253 20.6683 19.1884 21.0254 19.1884C21.3824 19.1884 21.7258 19.3253 21.985 19.5708C22.2442 19.8164 22.3994 20.1519 22.4187 20.5084V21.9038H35.9524V20.5084C35.9524 20.1384 36.0994 19.7835 36.3611 19.5218C36.6228 19.2601 36.9777 19.1131 37.3477 19.1131M37.3477 18.7148C36.8728 18.7153 36.4175 18.9042 36.0816 19.24C35.7458 19.5758 35.5569 20.0312 35.5565 20.5061V21.5015H22.8169V20.509C22.8169 20.034 22.6282 19.5783 22.2923 19.2424C21.9564 18.9065 21.5007 18.7178 21.0257 18.7178C20.5506 18.7178 20.095 18.9065 19.759 19.2424C19.4231 19.5783 19.2344 20.034 19.2344 20.509V23.8922C19.2344 24.1033 19.3182 24.3057 19.4675 24.455C19.6168 24.6042 19.8192 24.6881 20.0303 24.6881H38.3408C38.4453 24.6882 38.5489 24.6676 38.6455 24.6277C38.7422 24.5877 38.83 24.5291 38.904 24.4552C38.9779 24.3813 39.0366 24.2935 39.0766 24.1969C39.1167 24.1003 39.1373 23.9967 39.1373 23.8922V20.5084C39.1367 20.0336 38.9477 19.5784 38.6119 19.2427C38.2761 18.907 37.8208 18.7182 37.346 18.7178L37.3477 18.7148Z" fill="#AAAAAA"/>
</g>
<path d="M6.35084 12.8828C7.94774 12.8828 9.34308 13.1774 10.5369 13.7665L9.95549 15.7433C9.30433 15.4332 8.69967 15.2084 8.14153 15.0689C7.5989 14.9138 7.04851 14.8363 6.49037 14.8363C5.65316 14.8363 4.99425 15.0146 4.51363 15.3712C4.03301 15.7278 3.7927 16.2239 3.7927 16.8596C3.7927 17.4177 3.97874 17.8596 4.35084 18.1851C4.72293 18.5107 5.32758 18.8053 6.16479 19.0689L7.60665 19.534C8.87797 19.9371 9.8082 20.503 10.3973 21.2316C10.9865 21.9448 11.2811 22.7743 11.2811 23.72C11.2811 24.3557 11.157 24.9371 10.909 25.4642C10.6609 25.9913 10.3043 26.441 9.83921 26.813C9.3896 27.1851 8.83921 27.4797 8.18805 27.6968C7.53688 27.8983 6.81595 27.9991 6.02525 27.9991C5.23456 27.9991 4.44386 27.9216 3.65316 27.7665C2.87797 27.627 2.11828 27.3789 1.37409 27.0223L1.95549 25.0689C2.62215 25.3944 3.27332 25.6425 3.90898 25.813C4.54463 25.9681 5.2113 26.0456 5.90898 26.0456C6.74618 26.0456 7.42836 25.8673 7.95549 25.5107C8.48262 25.1541 8.74619 24.627 8.74619 23.9293C8.74619 23.4332 8.56014 22.9913 8.18805 22.6037C7.83146 22.2161 7.12603 21.8518 6.07177 21.5107L4.69967 21.0689C3.62991 20.7123 2.78494 20.2394 2.16479 19.6503C1.56014 19.0456 1.25781 18.2084 1.25781 17.1386C1.25781 15.8518 1.69192 14.8208 2.56014 14.0456C3.42836 13.2704 4.69192 12.8828 6.35084 12.8828Z" fill="#AAAAAA"/>
<path d="M50.3958 13.1172V15.1172H44.047V19.5823H49.8842V21.559H44.047V27.7684H41.5586V13.1172H50.3958Z" fill="#AAAAAA"/>
<path d="M55.1916 22.0242H59.6334L58.773 19.6521C58.649 19.3265 58.5327 19.0164 58.4241 18.7218C58.3156 18.4118 58.2071 18.1094 58.0986 17.8149C57.99 17.5203 57.8815 17.218 57.773 16.9079C57.68 16.5978 57.5792 16.2567 57.4707 15.8846H57.4241C57.1916 16.5668 56.9745 17.2025 56.773 17.7916C56.5714 18.3653 56.3389 18.9932 56.0753 19.6753L55.1916 22.0242ZM56.3079 13.1172H58.68L64.3776 27.7684H61.773L60.3079 23.9311H54.5637L53.1218 27.7684H50.5404L56.3079 13.1172Z" fill="#AAAAAA"/>
<path d="M66.3906 27.3501C66.3906 27.2075 66.434 27.0896 66.5209 26.9966C66.6139 26.9036 66.7255 26.8571 66.8557 26.8571C66.986 26.8571 67.0945 26.9036 67.1813 26.9966C67.2743 27.0896 67.3209 27.2075 67.3209 27.3501C67.3209 27.5051 67.2743 27.6292 67.1813 27.7222C67.0945 27.809 66.986 27.8524 66.8557 27.8524C66.7255 27.8524 66.6139 27.809 66.5209 27.7222C66.434 27.6292 66.3906 27.5051 66.3906 27.3501Z" fill="#AAAAAA"/>
<path d="M71.244 21.1641H71.8951V27.7687H71.3556L71.2719 27.3222H71.2533C71.092 27.4958 70.9122 27.6292 70.7137 27.7222C70.5153 27.809 70.2641 27.8524 69.9602 27.8524C69.7246 27.8524 69.4951 27.8059 69.2719 27.7129C69.0486 27.6199 68.8471 27.4803 68.6672 27.2943C68.4874 27.1082 68.3416 26.8757 68.23 26.5966C68.1246 26.3114 68.0719 25.9765 68.0719 25.592C68.0719 25.2509 68.1153 24.9408 68.2021 24.6617C68.2951 24.3827 68.4254 24.147 68.5928 23.9548C68.7664 23.7563 68.9742 23.6044 69.2161 23.4989C69.4641 23.3935 69.7432 23.3408 70.0533 23.3408C70.2827 23.3408 70.4967 23.3749 70.6951 23.4431C70.8998 23.5113 71.0827 23.6168 71.244 23.7594V21.1641ZM71.244 24.3548C71.1075 24.1935 70.9463 24.0695 70.7602 23.9827C70.5742 23.8896 70.382 23.8431 70.1835 23.8431C69.9975 23.8431 69.8176 23.8741 69.644 23.9362C69.4703 23.9982 69.3153 24.0974 69.1789 24.2338C69.0486 24.3703 68.9432 24.5501 68.8626 24.7734C68.782 24.9904 68.7416 25.254 68.7416 25.5641C68.7416 25.8865 68.7789 26.1594 68.8533 26.3827C68.9339 26.6059 69.0393 26.7889 69.1695 26.9315C69.2998 27.0741 69.4455 27.1796 69.6068 27.2478C69.7742 27.3098 69.9447 27.3408 70.1184 27.3408C70.3727 27.3408 70.5928 27.2912 70.7789 27.192C70.9649 27.0927 71.1199 26.9532 71.244 26.7734V24.3548Z" fill="#AAAAAA"/>
<path d="M76.7933 25.6292H73.6677V25.7129C73.6677 26.2276 73.8073 26.6276 74.0863 26.9129C74.3654 27.1982 74.7468 27.3408 75.2305 27.3408C75.4476 27.3408 75.6491 27.3253 75.8352 27.2943C76.0212 27.2571 76.2135 27.1982 76.4119 27.1176L76.5515 27.6013C76.3778 27.6757 76.1732 27.7346 75.9375 27.778C75.708 27.8276 75.4631 27.8524 75.2026 27.8524C74.8987 27.8524 74.6135 27.809 74.3468 27.7222C74.0801 27.6354 73.8445 27.502 73.6398 27.3222C73.4414 27.1362 73.2832 26.9005 73.1654 26.6152C73.0476 26.33 72.9887 25.9889 72.9887 25.592C72.9887 25.2509 73.0383 24.9408 73.1375 24.6617C73.2367 24.3827 73.3732 24.147 73.5468 23.9548C73.7266 23.7563 73.9406 23.6044 74.1887 23.4989C74.4429 23.3935 74.7251 23.3408 75.0352 23.3408C75.3018 23.3408 75.5406 23.3873 75.7515 23.4803C75.9685 23.5672 76.1546 23.6943 76.3096 23.8617C76.4646 24.0292 76.5825 24.2307 76.6631 24.4664C76.7499 24.702 76.7933 24.9625 76.7933 25.2478V25.6292ZM76.1235 25.1455C76.1235 24.9718 76.1018 24.8075 76.0584 24.6524C76.015 24.4912 75.9468 24.3517 75.8538 24.2338C75.767 24.1098 75.6522 24.0137 75.5096 23.9455C75.367 23.871 75.1964 23.8338 74.998 23.8338C74.6383 23.8338 74.3406 23.9517 74.1049 24.1873C73.8755 24.423 73.7359 24.7455 73.6863 25.1548L76.1235 25.1455Z" fill="#AAAAAA"/>
</g>
<defs>
<clipPath id="clip0_1_85">
<rect width="80" height="40" fill="white"/>
</clipPath>
<clipPath id="clip1_1_85">
<rect width="26.6698" height="21.5116" fill="white" transform="translate(12.4668 9.74414)"/>
</clipPath>
</defs>
</svg>
