<svg width="80" height="40" viewBox="0 0 80 40" fill="none" xmlns="http://www.w3.org/2000/svg">
<path d="M27.248 13.532C31.4342 14.2448 35.6979 14.6161 40.0392 14.6161C44.3804 14.6161 48.6441 14.2448 52.7527 13.5312L52.8303 13.8575C48.7216 14.7376 44.3804 15.2006 40.0392 15.2006C35.6204 15.2006 31.3567 14.7376 27.248 13.859V13.532Z" fill="#AAAAAA"/>
<path d="M58.1787 15.4934C52.287 16.7372 46.2403 17.3927 40.0386 17.3927C33.7593 17.3927 27.7126 16.7372 21.8984 15.4934L21.976 15.168C27.7901 16.2459 33.8368 16.809 40.0386 16.809C46.1628 16.809 52.2095 16.2459 58.1012 15.168L58.1787 15.4934Z" fill="#AAAAAA"/>
<path d="M47.6351 12.2867C45.1544 12.7619 42.5962 13.011 40.0379 13.011C37.4022 13.011 34.844 12.7619 32.3633 12.2867L32.4408 11.959C34.9215 12.2676 37.4022 12.4265 40.0379 12.4265C42.5962 12.4265 45.0769 12.2676 47.6351 11.959V12.2867Z" fill="#AAAAAA"/>
<path d="M36.6289 4.06184C36.6289 2.1763 37.8693 1.00586 39.3422 1.00586C40.8151 1.00586 42.0554 2.15874 42.0554 3.72414H41.9004C41.9004 2.44751 40.8926 1.49863 39.6523 1.49863C38.4119 1.49863 37.4041 2.43835 37.4041 4.07253V10.4908H36.6289V4.06184Z" fill="#AAAAAA"/>
<path d="M36.6277 1.97416C37.1704 1.09099 38.1781 0.509588 39.341 0.509588C41.124 0.509588 42.5969 1.78012 42.5969 4.06216V10.4911H43.3721V4.00944C43.3721 1.47527 41.6666 0 39.7286 0C38.3332 0 37.0928 0.776232 36.4727 1.9054L36.6277 1.97416Z" fill="#AAAAAA"/>
<path fill-rule="evenodd" clip-rule="evenodd" d="M40.1935 38.4362L41.5114 36.7333V38.4362H40.1935ZM39.9609 38.8014H41.5114V39.8083H42.1316V38.8014H42.6742V38.4362H42.1316V36.1992H41.7439L39.9609 38.5416V38.8014Z" fill="#AAAAAA"/>
<path fill-rule="evenodd" clip-rule="evenodd" d="M46.0856 37.7397C45.7755 37.5602 45.1553 37.4127 45.1553 36.9742C45.1553 36.5784 45.4654 36.3882 45.9305 36.3882C46.3182 36.3882 46.5507 36.5945 46.5507 36.9795C46.5507 37.3333 46.3957 37.5602 46.0856 37.7397ZM45.4654 38.0507C45.9305 38.2562 46.6282 38.4097 46.6282 38.9797C46.6282 39.4067 46.2406 39.7085 45.7755 39.7085C45.3104 39.7085 45.0003 39.4067 45.0003 38.9797C45.0003 38.5732 45.1553 38.2936 45.4654 38.0507ZM46.2406 37.7817C46.5507 37.6389 47.0159 37.4074 47.0159 37.0063C47.0159 36.4997 46.3957 36.2461 45.853 36.2461C45.3104 36.2461 44.6127 36.5364 44.6127 37.1224C44.6127 37.5915 44.9228 37.8031 45.3879 37.9979C44.9228 38.2195 44.5352 38.4571 44.5352 38.9583C44.5352 39.5802 45.1553 39.8499 45.698 39.8499C46.4732 39.8499 47.1709 39.5168 47.1709 38.8368C47.1709 38.2776 46.7058 38.0033 46.2406 37.7817Z" fill="#AAAAAA"/>
<path d="M34.2256 39.8078V39.7024C33.9155 39.7024 33.838 39.6703 33.838 39.4434V36.2461H33.683C33.5279 36.3676 33.2178 36.6846 32.5977 36.7901V36.9008C32.9853 36.9268 33.1403 36.9268 33.1403 37.0116C33.2178 37.0697 33.2178 37.1698 33.2178 37.3386V39.4434C33.2178 39.6703 33.0628 39.7024 32.7527 39.7024V39.8078H34.2256Z" fill="#AAAAAA"/>
<path d="M38.4116 36.2949H37.1712C37.0162 36.2949 36.8612 36.2948 36.7061 36.2849C36.5511 36.2796 36.5511 36.2689 36.5511 36.1367H36.396L36.0859 37.1291H36.1635L36.241 36.9824C36.3185 36.8671 36.396 36.7937 36.4735 36.7937H38.024L36.8612 39.0651C36.7061 39.4769 36.5511 39.7825 36.5511 39.8039C36.5511 39.9093 36.7061 39.904 36.7836 39.904C37.0162 39.904 37.0937 39.8199 37.1712 39.6557L38.4116 36.4377V36.2949Z" fill="#AAAAAA"/>
<path d="M0.736328 32.9128H35.3111V32.582H0.736328V32.9128Z" fill="#AAAAAA"/>
<path d="M39.1094 32.9128H80.1184V32.582H39.1094V32.9128Z" fill="#AAAAAA"/>
<path fill-rule="evenodd" clip-rule="evenodd" d="M34.9994 28.1051C34.9994 26.5771 33.9141 25.5625 32.3637 25.5625C30.7357 25.5625 29.6504 26.626 29.6504 28.1051C29.6504 29.5819 30.7357 30.6492 32.3637 30.6492C33.8366 30.6492 34.9994 29.5627 34.9994 28.1051ZM33.9141 28.1051C33.9141 29.3565 33.3714 30.3764 32.3637 30.3764C31.2783 30.3764 30.8132 29.3656 30.8132 28.1051C30.8132 26.8514 31.3559 25.8353 32.3637 25.8353C33.449 25.8353 33.9141 26.8414 33.9141 28.1051Z" fill="#AAAAAA"/>
<path fill-rule="evenodd" clip-rule="evenodd" d="M55.7761 26.6994H56.3187C57.7141 26.6994 58.9545 26.8163 58.9545 28.4634C58.9545 29.6209 58.2568 30.255 56.8614 30.255C56.2412 30.255 55.7761 30.1541 55.7761 29.5712V26.6994ZM55.7761 23.0865C55.9311 23.0834 56.0862 23.0865 56.2412 23.0865C58.1017 23.0865 58.4893 23.8168 58.4893 24.6985C58.4893 25.9308 57.5591 26.3846 56.3963 26.3846H55.7761V23.0865ZM53.6055 30.5247C54.6133 30.5247 55.5435 30.5697 56.5513 30.5697C57.3265 30.5697 58.3343 30.5132 59.1095 30.1442C59.9623 29.6957 60.2723 29.0937 60.2723 28.4069C60.2723 27.2983 59.4196 26.5023 58.2568 26.3678C59.187 26.1103 59.7297 25.5167 59.7297 24.5976C59.7297 24.004 59.3421 23.3882 58.7219 23.1185C58.0242 22.7832 57.249 22.7602 56.3963 22.7717C55.466 22.7832 54.5357 22.7832 53.6055 22.7938V23.0292C54.1481 23.1078 54.5357 22.9955 54.5357 23.567V29.8081C54.5357 30.2672 54.0706 30.2672 53.6055 30.2894V30.5247Z" fill="#AAAAAA"/>
<path fill-rule="evenodd" clip-rule="evenodd" d="M67.0945 28.1051C67.0945 26.5771 66.0092 25.5625 64.3812 25.5625C62.8308 25.5625 61.668 26.626 61.668 28.1051C61.668 29.5819 62.8308 30.6492 64.3812 30.6492C65.8542 30.6492 67.0945 29.5627 67.0945 28.1051ZM65.9317 28.1051C65.9317 29.3565 65.389 30.3764 64.3812 30.3764C63.3735 30.3764 62.8308 29.3656 62.8308 28.1051C62.8308 26.8514 63.3735 25.8353 64.3812 25.8353C65.4665 25.8353 65.9317 26.8414 65.9317 28.1051Z" fill="#AAAAAA"/>
<path d="M-0.117188 23.0283C0.192901 23.0283 0.502989 23.1093 0.735554 23.3186C0.890598 23.5241 1.12316 23.9413 1.35573 24.5631L3.91395 30.6804H4.30156L6.70474 24.4738C7.01482 23.7441 7.32491 23.0283 8.17765 23.0283V22.793H5.54191V23.0283C5.77448 23.0283 6.16209 23.0054 6.39465 23.3766C6.47217 23.5791 6.47217 24.0039 6.16209 24.7984L4.61165 29.0332H4.53412L2.59608 24.1712C2.59608 24.1047 2.44104 23.6991 2.44104 23.4775C2.51856 23.1283 2.98369 23.0283 3.3713 23.0283V22.793H-0.117188V23.0283Z" fill="#AAAAAA"/>
<path d="M13.6808 22.6934C13.1382 22.85 12.4405 23.0746 11.8203 23.2091V23.3435C12.1304 23.355 12.2854 23.4215 12.363 23.5116C12.5955 23.6682 12.5955 23.9371 12.5955 24.2175V29.6961C12.5955 30.2783 12.4405 30.2783 11.8203 30.3119V30.5251H14.3785V30.3119C13.8359 30.2783 13.6808 30.2783 13.6808 29.6961V22.6934Z" fill="#AAAAAA"/>
<path d="M17.2478 22.6934C16.7052 22.85 16.0075 23.0746 15.4648 23.2091V23.3435C15.6974 23.355 15.8525 23.4215 16.0075 23.5116C16.1625 23.6682 16.1625 23.9371 16.1625 24.2175V29.6961C16.1625 30.2783 16.0075 30.2783 15.4648 30.3119V30.5251H17.9455V30.3119C17.4029 30.2783 17.2478 30.2783 17.2478 29.6961V22.6934Z" fill="#AAAAAA"/>
<path d="M27.6363 30.526V30.3128C27.0162 30.2792 26.8611 30.2792 26.8611 29.697V27.5342C26.8611 26.6197 27.3263 26.1223 27.6363 26.1223C28.024 26.1223 28.1015 26.5647 28.4891 26.5647C28.7992 26.5647 29.0317 26.3668 29.0317 26.0597C29.0317 25.6937 28.6441 25.4844 28.2565 25.4844C27.4813 25.4844 27.0162 26.1475 26.7836 26.4906V25.5295C26.3185 25.7082 25.6983 25.9436 25.1556 26.1009V26.2125C25.6208 26.4027 25.7758 26.4256 25.7758 26.8626V29.697C25.7758 30.2792 25.5433 30.2792 25.0781 30.3128V30.526H27.6363Z" fill="#AAAAAA"/>
<path d="M72.9846 29.1777C72.6745 29.7324 72.1318 30.2259 71.3566 30.2259C70.0387 30.2259 69.6511 29.07 69.6511 28.0394C69.6511 27.1424 69.9612 25.8353 71.124 25.8353C71.5892 25.8353 72.0543 26.1477 72.0543 26.6145C72.0543 26.9003 72.2869 27.1753 72.5194 27.1753C72.8295 27.1753 73.0621 26.9812 73.0621 26.7161C72.9846 25.985 72.0543 25.5625 71.124 25.5625C69.4961 25.5625 68.4883 26.6665 68.4883 28.1532C68.4883 29.52 69.4961 30.6492 70.969 30.6492C71.9768 30.6492 72.752 30.1021 73.1396 29.2335L72.9846 29.1777Z" fill="#AAAAAA"/>
<path d="M76.5524 30.5251V30.3119C76.0097 30.2783 75.8547 30.2783 75.8547 29.6961V26.7272C76.1648 26.4033 76.3973 26.0206 77.1725 26.0206C77.8702 26.0206 78.1803 26.5813 78.1803 27.3262V29.6961C78.1803 30.2783 78.0253 30.2783 77.5601 30.3119V30.5251H80.0409V30.3119C79.4982 30.2783 79.3432 30.2783 79.3432 29.6961V27.4439C79.3432 25.8471 78.1803 25.5622 77.5601 25.5622C76.7849 25.5622 76.3198 25.9128 75.8547 26.3575V22.6934C75.312 22.8836 74.6143 23.0631 74.0717 23.2648V23.355C74.3818 23.4215 74.6918 23.5223 74.6918 23.8699V29.6961C74.6918 30.2783 74.5368 30.2783 73.9941 30.3119V30.5251H76.5524Z" fill="#AAAAAA"/>
<path d="M10.6598 30.5253V30.3121C10.1171 30.2785 9.96209 30.2785 9.96209 29.6963V25.5059C9.41943 25.6961 8.72174 25.8978 8.17908 26.1002V26.2118C8.33413 26.2339 8.41165 26.2454 8.56669 26.3233C8.79926 26.4585 8.79926 26.7718 8.79926 27.0071V29.6963C8.79926 30.2785 8.64422 30.2785 8.10156 30.3121V30.5253H10.6598Z" fill="#AAAAAA"/>
<path d="M8.7207 24.0477C8.7207 23.6971 8.95327 23.4121 9.34088 23.4121C9.65097 23.4121 9.96105 23.6971 9.96105 24.0477C9.96105 24.3976 9.65097 24.6826 9.34088 24.6826C8.95327 24.6826 8.7207 24.3976 8.7207 24.0477Z" fill="#AAAAAA"/>
<path d="M20.5037 27.124H22.8293C22.8293 26.2783 22.2867 25.8375 21.744 25.8375C21.2014 25.8375 20.6587 26.3348 20.5037 27.124ZM20.4261 27.4617C20.3486 27.6428 20.3486 27.8361 20.3486 28.0393C20.3486 29.2159 20.8138 30.2258 22.1316 30.2258C22.6743 30.2258 23.372 29.8309 23.7596 29.1776L23.9146 29.2334C23.6821 29.8591 22.9844 30.6491 21.8215 30.6491C20.2711 30.6491 19.1858 29.6658 19.1858 28.1531C19.1858 26.7153 20.1936 25.5624 21.744 25.5624C22.9068 25.5624 23.8371 26.2034 23.9146 27.4617H20.4261Z" fill="#AAAAAA"/>
<path d="M38.0249 31.5561L38.4125 30.6492L36.4744 26.4809C36.3194 26.1692 36.1644 25.8979 35.6992 25.8979V25.6855H38.335V25.8979C38.0249 25.8979 37.7923 25.9018 37.7148 26.1172C37.7148 26.2066 37.6373 26.3594 37.7923 26.5481L39.0327 29.3818L40.118 26.817C40.1955 26.5779 40.273 26.2761 40.1955 26.1111C40.0404 25.8827 39.7304 25.8979 39.4978 25.8979V25.6855H41.5134V25.8979C40.9707 25.8979 40.7381 26.2272 40.5831 26.5817L38.335 31.7578C38.1024 32.2773 37.7923 32.9343 37.0946 32.9343C36.862 32.9343 36.6295 32.7211 36.6295 32.4858C36.6295 32.2177 36.7845 32.0381 37.0946 32.0267C37.2497 32.0381 37.3272 32.0825 37.4822 32.0939C37.7923 32.1191 37.9474 31.786 38.0249 31.5561Z" fill="#AAAAAA"/>
<path d="M46.7827 26.4156C47.3253 25.9656 47.4804 25.6073 47.4804 25.2131C47.5579 24.6004 47.2478 24.3841 46.8602 24.3841C46.4726 24.3841 46.24 24.7799 46.24 25.0114C46.24 25.3643 46.3951 25.5989 46.5501 26.0015C46.6276 26.1085 46.7052 26.2506 46.7827 26.4156ZM47.7905 29.5931C47.2478 28.9192 46.6276 27.981 46.1625 27.2804C45.7749 27.7113 45.4648 28.2247 45.4648 28.8306C45.4648 29.629 46.0075 30.1156 46.6276 30.1156C47.0928 30.1156 47.4804 29.8757 47.7905 29.5931ZM48.7207 28.949C48.6432 29.0109 48.6432 29.0743 48.5657 29.1377C48.6432 29.2095 48.7207 29.2752 48.7207 29.3348C49.1083 29.7367 49.4959 30.0262 50.1161 30.0262C50.4262 30.0262 50.6588 29.9254 50.9689 29.5869L51.0464 29.7061C50.8138 30.1271 50.2712 30.6489 49.651 30.6489C49.0308 30.6489 48.5657 30.3761 48.1006 29.9521L48.023 29.8543C47.5579 30.3051 47.0153 30.6489 46.3176 30.6489C44.9222 30.6489 44.457 29.7306 44.457 29.017C44.457 28.0605 45.3098 27.4554 46.0075 26.9909C45.8524 26.7556 45.7749 26.5653 45.6974 26.4477C45.5423 26.1864 45.3873 25.7395 45.3873 25.4476C45.3873 24.6821 45.9299 24.1328 46.8602 24.1328C47.7129 24.1328 48.2556 24.5988 48.1781 25.2635C48.1006 25.8403 47.4804 26.2888 46.9377 26.6884C47.3253 27.3538 47.868 28.2477 48.4106 28.8833C48.4106 28.8329 48.4106 28.7901 48.4882 28.758C48.6432 28.3875 48.9533 27.8404 48.9533 27.2988C48.9533 26.9512 48.7207 26.8503 48.4106 26.8503V26.6677H50.3487V26.8503C49.651 26.8603 49.4184 27.3973 49.1859 27.9023C49.1083 28.211 48.7983 28.6923 48.7207 28.949Z" fill="#AAAAAA"/>
</svg>
