<svg width="80" height="40" viewBox="0 0 80 40" fill="none" xmlns="http://www.w3.org/2000/svg">
<g clip-path="url(#clip0_1_173)">
<path d="M9.62902 26.2737V23.8266H8.40578C8.06076 23.8266 7.74711 23.858 7.40209 23.858L10.1308 18.2109H3.60696V20.6266H4.76747C5.1752 20.6266 5.5516 20.5952 5.95933 20.5639L3.19922 26.2737H9.62902Z" fill="#AAAAAA"/>
<path d="M10.4453 18.2109V22.9796C10.4453 25.1756 11.6999 26.4933 14.0209 26.4933C16.2164 26.4933 17.5965 25.3952 17.5965 22.9796V18.2109H14.6168V22.5717C14.6168 23.5443 14.5541 23.9521 14.0209 23.9521C13.519 23.9521 13.4563 23.5443 13.4563 22.5717V18.2109H10.4453Z" fill="#AAAAAA"/>
<path d="M23.4911 18.0542C22.362 17.9915 21.6093 18.8071 21.2956 19.8111L21.2642 19.7797L21.4524 18.2424H18.4414V26.2738H21.421V23.0424C21.421 22.1954 21.5779 21.1287 22.6757 21.1287C22.8952 21.1287 23.2402 21.2855 23.5225 21.4424L23.4911 18.0542Z" fill="#AAAAAA"/>
<path d="M27.7573 23.8584C27.0673 23.8584 27.0359 22.6349 27.0359 22.1643C27.0359 21.7565 27.0987 20.5016 27.6946 20.5016C28.4474 20.5016 28.4787 21.6937 28.4787 22.1643C28.5101 22.6349 28.4474 23.8584 27.7573 23.8584ZM24.1504 26.2741H27.1927L27.13 25.2074L27.1614 25.1761C27.5691 25.8976 28.071 26.4309 28.9806 26.4309C31.3329 26.4309 31.5838 23.4192 31.5838 22.2898C31.5838 20.627 31.1761 17.9917 28.9806 17.9917C28.0396 17.9917 27.4751 18.4937 27.0987 19.3094L27.0673 19.278L27.13 18.18V14.1016H24.1504V26.2741Z" fill="#AAAAAA"/>
<path d="M37.1982 18.0542C36.0691 17.9915 35.3163 18.8071 35.0027 19.8111L34.9713 19.7797L35.1595 18.2424H32.1484V26.2738H35.1281V23.0424C35.1281 22.1954 35.2849 21.1287 36.3827 21.1287C36.6023 21.1287 36.9472 21.2855 37.2295 21.4424L37.1982 18.0542Z" fill="#AAAAAA"/>
<path d="M37.7637 18.2109V22.9796C37.7637 25.1756 39.0182 26.4933 41.3393 26.4933C43.5348 26.4933 44.9146 25.3952 44.9146 22.9796V18.2109H41.9352V22.5717C41.9352 23.5443 41.8725 23.9521 41.3393 23.9521C40.8374 23.9521 40.7747 23.5443 40.7747 22.5717V18.2109H37.7637Z" fill="#AAAAAA"/>
<path d="M49.1486 23.9194C48.5842 23.9194 48.4588 22.8841 48.4588 22.1626C48.4588 21.3155 48.5842 20.4684 49.1486 20.4684C49.7762 20.4684 49.8389 21.3782 49.8389 22.2253C49.8704 23.0096 49.7762 23.9194 49.1486 23.9194ZM52.7873 18.2096H49.7446L49.8073 19.2449L49.7762 19.2763C49.3682 18.6174 48.8353 18.0527 47.9571 18.0527C45.9811 18.0527 45.3535 20.7822 45.3535 22.288C45.3535 23.888 45.9495 26.3978 48.0197 26.3978C48.7411 26.3978 49.4624 25.9586 49.7762 25.3626H49.8073V26.4292C49.8073 27.2763 49.7135 27.8096 49.1802 27.8096C48.8037 27.8096 48.5842 27.4959 48.5842 27.1508H45.542C45.7615 29.2214 47.1731 30.0684 49.1175 30.0684C51.658 30.0684 52.8184 28.8449 52.8184 26.3351L52.7873 18.2096Z" fill="#AAAAAA"/>
<path d="M57.0842 23.9194C56.5197 23.9194 56.394 22.8841 56.394 22.1626C56.394 21.3155 56.5197 20.4684 57.0842 20.4684C57.7113 20.4684 57.7744 21.3782 57.7744 22.2253C57.8055 23.0096 57.7113 23.9194 57.0842 23.9194ZM60.7224 18.2096H57.6802L57.7428 19.2449L57.7113 19.2763C57.3037 18.6174 56.7704 18.0527 55.8922 18.0527C53.9162 18.0527 53.2891 20.7822 53.2891 22.288C53.2891 23.888 53.8851 26.3978 55.9548 26.3978C56.6766 26.3978 57.398 25.9586 57.7113 25.3626H57.7428V26.4292C57.7428 27.2763 57.6486 27.8096 57.1157 27.8096C56.7393 27.8096 56.5197 27.4959 56.5197 27.1508H53.4771C53.6966 29.2214 55.1082 30.0684 57.0526 30.0684C59.5935 30.0684 60.754 28.8449 60.754 26.3351L60.7224 18.2096Z" fill="#AAAAAA"/>
<path d="M64.2354 21.2548C64.2043 20.847 64.4239 20.2195 64.8941 20.2195C65.4274 20.2195 65.5843 20.7842 65.6154 21.2548H64.2354ZM65.6154 23.545C65.5528 23.8901 65.2705 24.1097 64.9567 24.1097C64.3296 24.1097 64.267 23.3568 64.267 22.8862H68.6581C68.6581 21.6313 68.5639 20.4077 67.7799 19.3411C67.215 18.5568 66.3056 18.0234 65.051 18.0234C62.5732 18.0234 61.2559 20.0627 61.2559 22.3842C61.2559 24.7685 62.479 26.4313 64.9883 26.4313C66.8074 26.4313 68.219 25.396 68.5639 23.545H65.6154Z" fill="#AAAAAA"/>
<path d="M72.1397 18.2118H69.1602V26.2745H72.1397V22.3529C72.1397 21.5373 72.2024 20.9725 72.7673 20.9725C73.2691 20.9725 73.3002 21.4432 73.3002 22.1647V26.2432H76.2797V20.9098C76.2797 19.4667 75.8722 17.9922 74.1473 17.9922C73.1433 17.9922 72.3593 18.8079 72.1086 19.6863L72.077 19.6549L72.1397 18.2118Z" fill="#AAAAAA"/>
<path d="M40.7746 17.7403H37.7949L43.9111 9.70898H46.8279L40.7746 17.7403ZM49.6195 11.4972C48.0199 13.6933 46.5146 15.6698 44.8835 17.7403H41.9665L46.7341 11.4972H49.6195Z" fill="#AAAAAA"/>
</g>
<defs>
<clipPath id="clip0_1_173">
<rect width="80" height="21.3333" fill="white" transform="translate(0 9.33203)"/>
</clipPath>
</defs>
</svg>
