<svg width="24" height="24" viewBox="0 0 24 24" fill="none" xmlns="http://www.w3.org/2000/svg">
<path d="M18.6891 5.52533C18.2738 5.10491 17.7806 4.77141 17.2377 4.54387C16.6949 4.31633 16.1131 4.19922 15.5255 4.19922C14.9379 4.19922 14.3561 4.31633 13.8133 4.54387C13.2704 4.77141 12.7772 5.10491 12.3619 5.52533L11.4998 6.39743L10.6377 5.52533C9.79866 4.67652 8.66066 4.19966 7.47407 4.19966C6.28747 4.19966 5.14947 4.67652 4.31042 5.52533C3.47137 6.37414 3 7.52537 3 8.72578C3 9.92618 3.47137 11.0774 4.31042 11.9262L5.1725 12.7983L11.4998 19.1992L17.8271 12.7983L18.6891 11.9262C19.1047 11.506 19.4344 11.0071 19.6593 10.4579C19.8842 9.90879 20 9.32019 20 8.72578C20 8.13136 19.8842 7.54276 19.6593 6.99362C19.4344 6.44448 19.1047 5.94555 18.6891 5.52533Z" stroke="#1B2B2B" stroke-width="2" stroke-linecap="round" stroke-linejoin="round"/>
<circle cx="19" cy="6" r="5" fill="#C5283D"/>
<path d="M20.7998 6.21C20.7998 6.52333 20.7656 6.795 20.6973 7.025C20.6306 7.25333 20.539 7.4425 20.4223 7.5925C20.3056 7.7425 20.1673 7.85417 20.0073 7.9275C19.849 8.00083 19.679 8.0375 19.4973 8.0375C19.314 8.0375 19.1431 8.00083 18.9848 7.9275C18.8281 7.85417 18.6915 7.7425 18.5748 7.5925C18.4581 7.4425 18.3665 7.25333 18.2998 7.025C18.2331 6.795 18.1998 6.52333 18.1998 6.21C18.1998 5.89667 18.2331 5.625 18.2998 5.395C18.3665 5.165 18.4581 4.975 18.5748 4.825C18.6915 4.67333 18.8281 4.56083 18.9848 4.4875C19.1431 4.41417 19.314 4.3775 19.4973 4.3775C19.679 4.3775 19.849 4.41417 20.0073 4.4875C20.1673 4.56083 20.3056 4.67333 20.4223 4.825C20.539 4.975 20.6306 5.165 20.6973 5.395C20.7656 5.625 20.7998 5.89667 20.7998 6.21ZM20.3373 6.21C20.3373 5.93667 20.314 5.7075 20.2673 5.5225C20.2223 5.33583 20.1606 5.18583 20.0823 5.0725C20.0056 4.95917 19.9165 4.87833 19.8148 4.83C19.7131 4.78 19.6073 4.755 19.4973 4.755C19.3873 4.755 19.2815 4.78 19.1798 4.83C19.0781 4.87833 18.989 4.95917 18.9123 5.0725C18.8356 5.18583 18.774 5.33583 18.7273 5.5225C18.6823 5.7075 18.6598 5.93667 18.6598 6.21C18.6598 6.48333 18.6823 6.7125 18.7273 6.8975C18.774 7.0825 18.8356 7.23167 18.9123 7.345C18.989 7.45833 19.0781 7.54 19.1798 7.59C19.2815 7.63833 19.3873 7.6625 19.4973 7.6625C19.6073 7.6625 19.7131 7.63833 19.8148 7.59C19.9165 7.54 20.0056 7.45833 20.0823 7.345C20.1606 7.23167 20.2223 7.0825 20.2673 6.8975C20.314 6.7125 20.3373 6.48333 20.3373 6.21Z" fill="white"/>
</svg>
