<svg width="154" height="50" viewBox="0 0 154 50" fill="none" xmlns="http://www.w3.org/2000/svg">
<g clip-path="url(#clip0_1_33)">
<path d="M74.9262 42.3268C74.9262 41.44 75.1405 40.6492 75.5692 39.9544C76.0126 39.245 76.6038 38.6833 77.3429 38.2694C78.082 37.8555 78.8949 37.6486 79.7818 37.6486C80.6687 37.6486 81.3264 37.7964 81.7551 38.092C82.1985 38.3729 82.3685 38.7128 82.265 39.1119C82.2207 39.3189 82.132 39.4814 81.999 39.5997C81.8807 39.7032 81.7403 39.7697 81.5777 39.7992C81.4151 39.8288 81.2377 39.8214 81.0456 39.7771C80.0996 39.5849 79.2497 39.5701 78.4958 39.7327C77.742 39.8953 77.1433 40.1983 76.6999 40.6418C76.2713 41.0852 76.0569 41.6469 76.0569 42.3268H74.9262ZM74.9483 49.9096C74.5936 49.9096 74.3201 49.8209 74.128 49.6435C73.9358 49.4514 73.8398 49.1705 73.8398 48.801V38.8902C73.8398 38.5355 73.9358 38.262 74.128 38.0698C74.3201 37.8777 74.5936 37.7816 74.9483 37.7816C75.3179 37.7816 75.5913 37.8777 75.7687 38.0698C75.9609 38.2472 76.0569 38.5207 76.0569 38.8902V48.801C76.0569 49.1557 75.9609 49.4292 75.7687 49.6213C75.5913 49.8135 75.3179 49.9096 74.9483 49.9096Z" fill="#155252"/>
<path d="M64.8207 49.9991C63.6234 49.9991 62.5665 49.7404 61.6501 49.2231C60.7337 48.6909 60.0094 47.9667 59.4773 47.0502C58.9599 46.119 58.7013 45.0548 58.7013 43.8575C58.7013 42.6454 58.9599 41.5812 59.4773 40.6648C60.0094 39.7335 60.7337 39.0093 61.6501 38.4919C62.5665 37.9598 63.6234 37.6937 64.8207 37.6937C66.0032 37.6937 67.0526 37.9598 67.9691 38.4919C68.8855 39.0093 69.6024 39.7335 70.1197 40.6648C70.6519 41.5812 70.9179 42.6454 70.9179 43.8575C70.9179 45.0548 70.6592 46.119 70.1419 47.0502C69.6246 47.9667 68.9077 48.6909 67.9912 49.2231C67.0748 49.7404 66.018 49.9991 64.8207 49.9991ZM64.8207 48.0036C65.5893 48.0036 66.2692 47.8262 66.8605 47.4715C67.4517 47.1167 67.9099 46.629 68.2351 46.0081C68.5751 45.3873 68.7451 44.6705 68.7451 43.8575C68.7451 43.0445 68.5751 42.3276 68.2351 41.7068C67.9099 41.0712 67.4517 40.5761 66.8605 40.2213C66.2692 39.8666 65.5893 39.6892 64.8207 39.6892C64.0521 39.6892 63.3721 39.8666 62.7809 40.2213C62.1896 40.5761 61.724 41.0712 61.3841 41.7068C61.0441 42.3276 60.8741 43.0445 60.8741 43.8575C60.8741 44.6705 61.0441 45.3873 61.3841 46.0081C61.724 46.629 62.1896 47.1167 62.7809 47.4715C63.3721 47.8262 64.0521 48.0036 64.8207 48.0036Z" fill="#155252"/>
<path d="M54.4281 49.9109C54.1029 49.9109 53.8295 49.8074 53.6077 49.6005C53.4008 49.3788 53.2973 49.1053 53.2973 48.7801V38.9137C53.2973 38.5737 53.4008 38.3003 53.6077 38.0933C53.8295 37.8864 54.1029 37.7829 54.4281 37.7829C54.7681 37.7829 55.0415 37.8864 55.2484 38.0933C55.4554 38.3003 55.5588 38.5737 55.5588 38.9137V48.7801C55.5588 49.1053 55.4554 49.3788 55.2484 49.6005C55.0415 49.8074 54.7681 49.9109 54.4281 49.9109ZM54.4281 35.8096C54.029 35.8096 53.6816 35.6692 53.386 35.3884C53.1052 35.0927 52.9648 34.7454 52.9648 34.3463C52.9648 33.9472 53.1052 33.6072 53.386 33.3264C53.6816 33.0308 54.029 32.883 54.4281 32.883C54.8272 32.883 55.1671 33.0308 55.448 33.3264C55.7436 33.6072 55.8914 33.9472 55.8914 34.3463C55.8914 34.7454 55.7436 35.0927 55.448 35.3884C55.1671 35.6692 54.8272 35.8096 54.4281 35.8096Z" fill="#155252"/>
<path d="M43.8207 42.3268C43.8207 41.44 44.035 40.6492 44.4637 39.9544C44.9071 39.245 45.4984 38.6833 46.2374 38.2694C46.9765 37.8555 47.7894 37.6486 48.6763 37.6486C49.5632 37.6486 50.221 37.7964 50.6496 38.092C51.093 38.3729 51.263 38.7128 51.1596 39.1119C51.1152 39.3189 51.0265 39.4814 50.8935 39.5997C50.7752 39.7032 50.6348 39.7697 50.4722 39.7992C50.3096 39.8288 50.1323 39.8214 49.9401 39.7771C48.9941 39.5849 48.1442 39.5701 47.3904 39.7327C46.6365 39.8953 46.0379 40.1983 45.5944 40.6418C45.1658 41.0852 44.9515 41.6469 44.9515 42.3268H43.8207ZM43.8429 49.9096C43.4881 49.9096 43.2147 49.8209 43.0225 49.6435C42.8304 49.4514 42.7343 49.1705 42.7343 48.801V38.8902C42.7343 38.5355 42.8304 38.262 43.0225 38.0698C43.2147 37.8777 43.4881 37.7816 43.8429 37.7816C44.2124 37.7816 44.4859 37.8777 44.6632 38.0698C44.8554 38.2472 44.9515 38.5207 44.9515 38.8902V48.801C44.9515 49.1557 44.8554 49.4292 44.6632 49.6213C44.4859 49.8135 44.2124 49.9096 43.8429 49.9096Z" fill="#155252"/>
<path d="M35.106 49.9991C33.8792 49.9991 32.7854 49.7404 31.8246 49.2231C30.8786 48.6909 30.1322 47.9667 29.5852 47.0502C29.0531 46.119 28.7871 45.0548 28.7871 43.8575C28.7871 42.6454 29.0383 41.5812 29.5409 40.6648C30.0582 39.7335 30.7677 39.0093 31.6694 38.4919C32.571 37.9598 33.6057 37.6937 34.7734 37.6937C35.9264 37.6937 36.9167 37.9524 37.7445 38.4697C38.5722 38.9723 39.2004 39.6744 39.6291 40.5761C40.0725 41.4629 40.2942 42.4902 40.2942 43.6579C40.2942 43.9388 40.1981 44.1753 40.006 44.3674C39.8138 44.5448 39.5699 44.6335 39.2743 44.6335H30.3391V42.8598H39.2078L38.2988 43.4806C38.284 42.7415 38.1362 42.0837 37.8553 41.5073C37.5745 40.916 37.1754 40.4504 36.658 40.1105C36.1407 39.7705 35.5125 39.6005 34.7734 39.6005C33.9309 39.6005 33.2066 39.7853 32.6006 40.1548C32.0094 40.5243 31.5585 41.0343 31.2481 41.6847C30.9377 42.3202 30.7825 43.0445 30.7825 43.8575C30.7825 44.6705 30.9673 45.3947 31.3368 46.0303C31.7063 46.6659 32.2163 47.1685 32.8667 47.538C33.517 47.9075 34.2635 48.0923 35.106 48.0923C35.5642 48.0923 36.0298 48.011 36.5028 47.8484C36.9906 47.671 37.3823 47.4715 37.6779 47.2498C37.8997 47.0872 38.1362 47.0059 38.3874 47.0059C38.6535 46.9911 38.8826 47.065 39.0748 47.2276C39.326 47.4493 39.4591 47.6932 39.4739 47.9593C39.4886 48.2253 39.3704 48.4544 39.1191 48.6466C38.6166 49.0457 37.9883 49.3709 37.2345 49.6221C36.4955 49.8734 35.786 49.9991 35.106 49.9991Z" fill="#155252"/>
<path d="M25.3645 49.9118C24.6254 49.9118 23.9603 49.727 23.369 49.3575C22.7778 48.9732 22.3122 48.4558 21.9722 47.8055C21.6323 47.1551 21.4623 46.4234 21.4623 45.6105V35.0345C21.4623 34.7093 21.5657 34.4433 21.7727 34.2363C21.9796 34.0294 22.2457 33.9259 22.5709 33.9259C22.896 33.9259 23.1621 34.0294 23.369 34.2363C23.576 34.4433 23.6795 34.7093 23.6795 35.0345V45.6105C23.6795 46.2017 23.842 46.6969 24.1672 47.096C24.4924 47.4951 24.8915 47.6946 25.3645 47.6946H26.1183C26.3844 47.6946 26.6061 47.7981 26.7835 48.005C26.9757 48.2119 27.0717 48.478 27.0717 48.8032C27.0717 49.1284 26.9461 49.3944 26.6948 49.6014C26.4583 49.8083 26.1479 49.9118 25.7636 49.9118H25.3645ZM20.4424 40.134C20.132 40.134 19.8807 40.0453 19.6885 39.868C19.4964 39.6906 19.4003 39.4689 19.4003 39.2028C19.4003 38.9072 19.4964 38.6707 19.6885 38.4933C19.8807 38.3159 20.132 38.2273 20.4424 38.2273H25.5641C25.8745 38.2273 26.1257 38.3159 26.3179 38.4933C26.51 38.6707 26.6061 38.9072 26.6061 39.2028C26.6061 39.4689 26.51 39.6906 26.3179 39.868C26.1257 40.0453 25.8745 40.134 25.5641 40.134H20.4424Z" fill="#155252"/>
<path d="M16.5265 49.933C16.2013 49.933 15.9278 49.8295 15.7061 49.6226C15.4992 49.4009 15.3957 49.1274 15.3957 48.8023V43.348C15.3957 42.5055 15.2405 41.8181 14.9301 41.286C14.6197 40.7539 14.1984 40.3622 13.6663 40.1109C13.149 39.8449 12.5503 39.7118 11.8704 39.7118C11.2496 39.7118 10.6879 39.8375 10.1853 40.0887C9.68278 40.34 9.28369 40.68 8.98807 41.1086C8.69244 41.5225 8.54463 42.0029 8.54463 42.5498H7.14781C7.14781 41.6186 7.36953 40.7909 7.81296 40.0666C8.27118 39.3275 8.89199 38.7437 9.67539 38.315C10.4588 37.8863 11.3383 37.672 12.3138 37.672C13.3337 37.672 14.2428 37.8937 15.041 38.3372C15.8539 38.7658 16.4895 39.4014 16.9477 40.2439C17.4207 41.0865 17.6572 42.1212 17.6572 43.348V48.8023C17.6572 49.1274 17.5464 49.4009 17.3247 49.6226C17.1177 49.8295 16.8517 49.933 16.5265 49.933ZM7.41387 49.933C7.08869 49.933 6.81523 49.8295 6.59352 49.6226C6.38658 49.4009 6.28311 49.1274 6.28311 48.8023V38.9136C6.28311 38.5737 6.38658 38.3002 6.59352 38.0933C6.81523 37.8863 7.08869 37.7829 7.41387 37.7829C7.75384 37.7829 8.02729 37.8863 8.23423 38.0933C8.44116 38.3002 8.54463 38.5737 8.54463 38.9136V48.8023C8.54463 49.1274 8.44116 49.4009 8.23423 49.6226C8.02729 49.8295 7.75384 49.933 7.41387 49.933Z" fill="#155252"/>
<path d="M148.579 50.0004C147.544 50.0004 146.583 49.8452 145.697 49.5348C144.824 49.2096 144.144 48.8031 143.657 48.3154C143.435 48.0789 143.339 47.8128 143.368 47.5172C143.413 47.2068 143.561 46.9555 143.812 46.7633C144.108 46.5268 144.396 46.4308 144.677 46.4751C144.972 46.5047 145.224 46.6303 145.43 46.852C145.682 47.1329 146.081 47.3989 146.628 47.6502C147.189 47.8867 147.81 48.005 148.49 48.005C149.347 48.005 149.998 47.8645 150.441 47.5837C150.899 47.3029 151.136 46.9407 151.151 46.4973C151.166 46.0538 150.951 45.6695 150.508 45.3443C150.079 45.0192 149.288 44.7531 148.135 44.5462C146.642 44.2505 145.556 43.8071 144.876 43.2159C144.211 42.6246 143.878 41.9003 143.878 41.043C143.878 40.2892 144.1 39.6684 144.544 39.1806C144.987 38.678 145.556 38.3085 146.251 38.072C146.946 37.8207 147.67 37.6951 148.424 37.6951C149.399 37.6951 150.264 37.8503 151.018 38.1607C151.772 38.4711 152.37 38.8998 152.814 39.4467C153.021 39.6832 153.117 39.9344 153.102 40.2005C153.087 40.4518 152.961 40.6661 152.725 40.8435C152.488 41.0061 152.208 41.0578 151.882 40.9987C151.557 40.9396 151.284 40.8065 151.062 40.5996C150.693 40.2448 150.293 40.0009 149.865 39.8679C149.436 39.7349 148.941 39.6684 148.379 39.6684C147.729 39.6684 147.175 39.7792 146.716 40.0009C146.273 40.2227 146.051 40.5479 146.051 40.9765C146.051 41.2426 146.118 41.4865 146.251 41.7082C146.399 41.9151 146.679 42.1073 147.093 42.2846C147.507 42.4472 148.113 42.6098 148.911 42.7724C150.02 42.9941 150.892 43.275 151.528 43.6149C152.178 43.9549 152.644 44.354 152.925 44.8122C153.205 45.2557 153.346 45.773 153.346 46.3642C153.346 47.0442 153.161 47.6576 152.791 48.2045C152.437 48.7514 151.905 49.1875 151.195 49.5126C150.5 49.8378 149.628 50.0004 148.579 50.0004Z" fill="#DC9713"/>
<path d="M134.518 50.0003C133.365 50.0003 132.323 49.7343 131.392 49.2021C130.475 48.6552 129.743 47.9162 129.197 46.985C128.664 46.0537 128.398 45.0043 128.398 43.8366C128.398 42.6689 128.642 41.6268 129.13 40.7103C129.633 39.7791 130.313 39.0475 131.17 38.5153C132.027 37.9684 132.995 37.695 134.074 37.695C134.946 37.695 135.752 37.8797 136.491 38.2493C137.23 38.604 137.851 39.0918 138.354 39.7126V33.7262C138.354 33.3863 138.457 33.1128 138.664 32.9059C138.886 32.6989 139.159 32.5955 139.484 32.5955C139.824 32.5955 140.098 32.6989 140.305 32.9059C140.512 33.1128 140.615 33.3863 140.615 33.7262V43.8366C140.615 45.0043 140.342 46.0537 139.795 46.985C139.263 47.9162 138.538 48.6552 137.622 49.2021C136.705 49.7343 135.671 50.0003 134.518 50.0003ZM134.518 48.0049C135.272 48.0049 135.944 47.8275 136.535 47.4727C137.127 47.1032 137.592 46.6006 137.932 45.9651C138.272 45.3295 138.442 44.62 138.442 43.8366C138.442 43.0384 138.272 42.3289 137.932 41.7081C137.592 41.0873 137.127 40.5995 136.535 40.2447C135.944 39.8752 135.272 39.6904 134.518 39.6904C133.779 39.6904 133.106 39.8752 132.5 40.2447C131.909 40.5995 131.436 41.0873 131.081 41.7081C130.741 42.3289 130.571 43.0384 130.571 43.8366C130.571 44.62 130.741 45.3295 131.081 45.9651C131.436 46.6006 131.909 47.1032 132.5 47.4727C133.106 47.8275 133.779 48.0049 134.518 48.0049Z" fill="#DC9713"/>
<path d="M124.591 49.9326C124.266 49.9326 123.992 49.8292 123.771 49.6222C123.564 49.4005 123.46 49.1271 123.46 48.8019V43.3476C123.46 42.5051 123.305 41.8178 122.995 41.2856C122.684 40.7535 122.263 40.3618 121.731 40.1105C121.213 39.8445 120.615 39.7115 119.935 39.7115C119.314 39.7115 118.752 39.8371 118.25 40.0884C117.747 40.3397 117.348 40.6796 117.053 41.1083C116.757 41.5221 116.609 42.0025 116.609 42.5494H115.212C115.212 41.6182 115.434 40.7905 115.877 40.0662C116.336 39.3271 116.957 38.7433 117.74 38.3146C118.523 37.886 119.403 37.6716 120.378 37.6716C121.398 37.6716 122.307 37.8934 123.105 38.3368C123.918 38.7655 124.554 39.401 125.012 40.2436C125.485 41.0861 125.722 42.1208 125.722 43.3476V48.8019C125.722 49.1271 125.611 49.4005 125.389 49.6222C125.182 49.8292 124.916 49.9326 124.591 49.9326ZM115.478 49.9326C115.153 49.9326 114.88 49.8292 114.658 49.6222C114.451 49.4005 114.348 49.1271 114.348 48.8019V38.9133C114.348 38.5733 114.451 38.2998 114.658 38.0929C114.88 37.886 115.153 37.7825 115.478 37.7825C115.818 37.7825 116.092 37.886 116.299 38.0929C116.506 38.2998 116.609 38.5733 116.609 38.9133V48.8019C116.609 49.1271 116.506 49.4005 116.299 49.6222C116.092 49.8292 115.818 49.9326 115.478 49.9326Z" fill="#DC9713"/>
<path d="M106.721 50.0004C105.494 50.0004 104.401 49.7417 103.44 49.2244C102.494 48.6923 101.747 47.968 101.2 47.0516C100.668 46.1204 100.402 45.0561 100.402 43.8588C100.402 42.6468 100.654 41.5825 101.156 40.6661C101.673 39.7349 102.383 39.0106 103.285 38.4933C104.186 37.9611 105.221 37.6951 106.389 37.6951C107.542 37.6951 108.532 37.9538 109.36 38.4711C110.187 38.9737 110.816 39.6758 111.244 40.5774C111.688 41.4643 111.909 42.4916 111.909 43.6593C111.909 43.9401 111.813 44.1766 111.621 44.3688C111.429 44.5462 111.185 44.6348 110.89 44.6348H101.954V42.8611H110.823L109.914 43.4819C109.899 42.7429 109.751 42.0851 109.471 41.5086C109.19 40.9174 108.791 40.4518 108.273 40.1118C107.756 39.7718 107.128 39.6019 106.389 39.6019C105.546 39.6019 104.822 39.7866 104.216 40.1561C103.625 40.5257 103.174 41.0356 102.863 41.686C102.553 42.3216 102.398 43.0459 102.398 43.8588C102.398 44.6718 102.583 45.3961 102.952 46.0317C103.322 46.6673 103.832 47.1698 104.482 47.5394C105.132 47.9089 105.879 48.0936 106.721 48.0936C107.179 48.0936 107.645 48.0124 108.118 47.8498C108.606 47.6724 108.998 47.4728 109.293 47.2511C109.515 47.0885 109.751 47.0072 110.003 47.0072C110.269 46.9924 110.498 47.0664 110.69 47.2289C110.941 47.4507 111.074 47.6946 111.089 47.9606C111.104 48.2267 110.986 48.4558 110.734 48.6479C110.232 49.047 109.604 49.3722 108.85 49.6235C108.111 49.8748 107.401 50.0004 106.721 50.0004Z" fill="#DC9713"/>
<path d="M92.6567 42.3286C92.6567 41.4417 92.871 40.6509 93.2997 39.9562C93.7431 39.2467 94.3344 38.685 95.0734 38.2712C95.8125 37.8573 96.6254 37.6503 97.5123 37.6503C98.3992 37.6503 99.057 37.7982 99.4856 38.0938C99.929 38.3746 100.099 38.7146 99.9956 39.1137C99.9512 39.3206 99.8625 39.4832 99.7295 39.6015C99.6112 39.7049 99.4708 39.7714 99.3082 39.801C99.1456 39.8306 98.9683 39.8232 98.7761 39.7788C97.8301 39.5867 96.9802 39.5719 96.2264 39.7345C95.4725 39.8971 94.8739 40.2001 94.4304 40.6435C94.0018 41.087 93.7875 41.6487 93.7875 42.3286H92.6567ZM92.6789 49.9113C92.3241 49.9113 92.0507 49.8227 91.8585 49.6453C91.6664 49.4531 91.5703 49.1723 91.5703 48.8027V38.892C91.5703 38.5372 91.6664 38.2638 91.8585 38.0716C92.0507 37.8795 92.3241 37.7834 92.6789 37.7834C93.0484 37.7834 93.3219 37.8795 93.4992 38.0716C93.6914 38.249 93.7875 38.5224 93.7875 38.892V48.8027C93.7875 49.1575 93.6914 49.431 93.4992 49.6231C93.3219 49.8153 93.0484 49.9113 92.6789 49.9113Z" fill="#DC9713"/>
<path fill-rule="evenodd" clip-rule="evenodd" d="M43.5724 2.5086C43.7177 2.44811 43.8811 2.44807 44.0265 2.50849L86.0164 19.9627C86.6194 20.2134 87.3115 19.9277 87.5622 19.3247C87.8128 18.7216 87.5272 18.0296 86.9241 17.7789L44.4801 0.135867C44.044 -0.0453956 43.5537 -0.0452858 43.1177 0.136177L0.728421 17.7791C0.125486 18.03 -0.159855 18.7223 0.0910937 19.3252C0.342042 19.9281 1.03425 20.2135 1.63719 19.9625L43.5724 2.5086Z" fill="#155252"/>
<path d="M20.5469 26.4102L98.7393 26.4102" stroke="#DC9713" stroke-width="2.36499" stroke-linecap="round"/>
<path d="M86.4688 48.7305L86.4687 26.5587" stroke="#DC9713" stroke-width="2.36499" stroke-linecap="round"/>
<path d="M1.18164 48.7285L1.18164 26.4089" stroke="#155252" stroke-width="2.36499" stroke-linecap="round"/>
</g>
<defs>
<clipPath id="clip0_1_33">
<rect width="153.344" height="50" fill="white"/>
</clipPath>
</defs>
</svg>
