<svg width="24" height="24" viewBox="0 0 24 24" fill="none" xmlns="http://www.w3.org/2000/svg">
<path d="M20.5375 20.0004L16.4875 15.9504M16.4875 15.9504C17.1375 15.3003 17.6532 14.5286 18.005 13.6793C18.3568 12.83 18.5378 11.9197 18.5378 11.0004C18.5378 10.0811 18.3568 9.17076 18.005 8.32144C17.6532 7.47211 17.1375 6.7004 16.4875 6.05036C15.8374 5.40031 15.0657 4.88467 14.2164 4.53287C13.3671 4.18107 12.4568 4 11.5375 4C10.6182 4 9.70787 4.18107 8.85855 4.53287C8.00922 4.88467 7.23751 5.40031 6.58747 6.05036C5.27465 7.36318 4.53711 9.14375 4.53711 11.0004C4.53711 12.857 5.27465 14.6375 6.58747 15.9504C7.90029 17.2632 9.68086 18.0007 11.5375 18.0007C13.3941 18.0007 15.1746 17.2632 16.4875 15.9504Z" stroke="#1B2B2B" stroke-width="2" stroke-linecap="round" stroke-linejoin="round"/>
</svg>
