<svg width="24" height="24" viewBox="0 0 24 24" fill="none" xmlns="http://www.w3.org/2000/svg">
<path d="M20.5355 20.0004L16.4855 15.9504M16.4855 15.9504C17.1356 15.3003 17.6512 14.5286 18.003 13.6793C18.3548 12.83 18.5359 11.9197 18.5359 11.0004C18.5359 10.0811 18.3548 9.17076 18.003 8.32144C17.6512 7.47211 17.1356 6.7004 16.4855 6.05036C15.8355 5.40031 15.0638 4.88467 14.2144 4.53287C13.3651 4.18107 12.4548 4 11.5355 4C10.6162 4 9.70592 4.18107 8.85659 4.53287C8.00727 4.88467 7.23556 5.40031 6.58551 6.05036C5.27269 7.36318 4.53516 9.14375 4.53516 11.0004C4.53516 12.857 5.27269 14.6375 6.58551 15.9504C7.89834 17.2632 9.6789 18.0007 11.5355 18.0007C13.3921 18.0007 15.1727 17.2632 16.4855 15.9504Z" stroke="#DC9713" stroke-width="2" stroke-linecap="round" stroke-linejoin="round"/>
</svg>
