<svg width="24" height="24" viewBox="0 0 24 24" fill="none" xmlns="http://www.w3.org/2000/svg">
<path d="M16.5121 14.2458C16.5132 14.3998 16.4722 14.5513 16.3933 14.6837C16.3145 14.816 16.2009 14.9243 16.0649 14.9967L12.4537 16.9373L10.5046 20.557C10.4323 20.691 10.3252 20.8029 10.1944 20.8808C10.0637 20.9588 9.91435 21 9.76214 21C9.60992 21 9.46055 20.9588 9.32983 20.8808C9.19912 20.8029 9.09193 20.691 9.01964 20.557L7.07058 16.9373L3.45091 14.9967C3.31485 14.9251 3.20094 14.8178 3.12147 14.6861C3.042 14.5545 3 14.4037 3 14.25C3 14.0963 3.042 13.9455 3.12147 13.8139C3.20094 13.6823 3.31485 13.5749 3.45091 13.5033L7.07058 11.5627L9.01964 7.94299C9.09193 7.80904 9.19912 7.69715 9.32983 7.61916C9.46055 7.54117 9.60992 7.5 9.76214 7.5C9.91435 7.5 10.0637 7.54117 10.1944 7.61916C10.3252 7.69715 10.4323 7.80904 10.5046 7.94299L12.4537 11.5627L16.0649 13.5033C16.1997 13.575 16.3124 13.682 16.3912 13.8127C16.4699 13.9435 16.5117 14.0931 16.5121 14.2458Z" fill="white"/>
<path d="M21 6.93504C21.0006 7.02491 20.9767 7.11325 20.9308 7.19047C20.8848 7.26769 20.8186 7.33085 20.7394 7.37309L18.6347 8.50511L17.4988 10.6166C17.4566 10.6947 17.3942 10.76 17.318 10.8055C17.2418 10.851 17.1547 10.875 17.066 10.875C16.9773 10.875 16.8903 10.851 16.8141 10.8055C16.7379 10.76 16.6754 10.6947 16.6333 10.6166L15.4974 8.50511L13.3878 7.37309C13.3085 7.33133 13.2421 7.26869 13.1958 7.19192C13.1495 7.11515 13.125 7.02718 13.125 6.9375C13.125 6.84782 13.1495 6.75985 13.1958 6.68308C13.2421 6.60631 13.3085 6.54367 13.3878 6.50192L15.4974 5.36989L16.6333 3.25841C16.6754 3.18028 16.7379 3.115 16.8141 3.06951C16.8903 3.02402 16.9773 3 17.066 3C17.1547 3 17.2418 3.02402 17.318 3.06951C17.3942 3.115 17.4566 3.18028 17.4988 3.25841L18.6347 5.36989L20.7394 6.50192C20.8179 6.54376 20.8836 6.60615 20.9295 6.68242C20.9754 6.75869 20.9997 6.846 21 6.93504Z" fill="white"/>
</svg>
